<svg width="101" height="104" viewBox="0 0 101 104" fill="none" xmlns="http://www.w3.org/2000/svg">
<rect width="101" height="104" fill="#E4E6F1"/>
<g clip-path="url(#clip0_0_1)">
<rect width="987.219" height="942.657" transform="translate(-821 -559.296)" fill="white"/>
<rect x="-725.02" y="36.4634" width="795.26" height="250.918" rx="5.48455" fill="#F7EDE8"/>
<path d="M35.9538 2.78626C36.883 -1.04096 42.4439 -0.663435 42.8474 3.25427L45.3124 27.1914C45.5856 29.8446 48.6042 31.2328 50.7964 29.7134L75.6369 12.496C78.7498 10.3384 82.5981 13.9665 80.6274 17.201L68.5927 36.9537C67.3576 38.9811 68.4523 41.6241 70.7592 42.1842L98.1286 48.8295C101.494 49.6465 101.762 54.3287 98.5131 55.5255L70.2453 65.9369C68.0719 66.7374 67.2584 69.388 68.6086 71.2699L79.189 86.0172C81.4153 89.1203 77.7783 93.0414 74.5168 91.0543L55.3529 79.3784C53.3256 78.1432 50.6826 79.238 50.1225 81.5449L45.3673 101.13C44.4448 104.929 38.936 104.595 38.4792 100.712L35.083 71.844C34.759 69.0905 31.5181 67.785 29.376 69.5451L10.8423 84.7738C7.71978 87.3395 3.45108 83.457 5.71009 80.1059L22.9928 54.4685C24.61 52.0694 22.7889 48.8547 19.8998 49.0084L4.1872 49.8444C0.00277328 50.0671 -0.9753 44.089 3.06191 42.9665L16.4529 39.2434C18.9177 38.5581 19.842 35.5487 18.1868 33.598L6.3383 19.6337C3.76317 16.5987 7.43615 12.3012 10.8352 14.3721L26.1681 23.7139C28.1954 24.9491 30.8384 23.8544 31.3986 21.5474L35.9538 2.78626Z" fill="black"/>
<rect width="987.219" height="998.189" transform="translate(-821 1814.83)" fill="#F7EDE8"/>
</g>
<defs>
<clipPath id="clip0_0_1">
<rect width="987" height="7061" fill="white" transform="translate(-821 -1552)"/>
</clipPath>
</defs>
</svg>
