<svg width="54" height="55" viewBox="0 0 54 55" fill="none" xmlns="http://www.w3.org/2000/svg">
<path d="M13.8876 25.6028C12.69 26.689 11.5295 27.636 10.4155 28.8057C8.78155 30.5139 7.25902 32.3242 5.69006 34.0882C5.28158 34.5431 4.95665 35.2115 4.17681 34.8587C3.66621 34.6266 3.66621 34.0417 4.15824 33.0762C4.44604 32.5192 4.77097 31.9808 5.15161 31.4794C7.30544 28.6293 9.84918 26.1691 12.7828 24.1267C13.2842 23.7832 13.8319 23.4676 14.4075 23.2726C15.503 22.9105 16.3478 23.5418 16.2457 24.693C16.1807 25.4357 15.9208 26.1784 15.6979 26.9025C15.2709 28.2765 14.7789 29.6227 14.3704 31.006C14.259 31.3866 14.1197 32.0457 14.3518 32.3335C14.751 32.7606 15.9393 31.5351 16.4685 30.9688C18.0932 29.2513 19.6621 27.4781 21.2682 25.7421C22.8743 23.9967 24.6475 22.4278 26.7178 21.2487C27.3212 20.9052 27.9711 20.6082 28.6395 20.4318C29.7164 20.144 30.5705 20.8588 30.4962 21.9822C30.4591 22.5206 30.3013 23.0776 30.0692 23.5697C29.475 24.8044 28.7973 25.9927 28.1753 27.2089C27.5254 28.4808 26.8477 29.7527 26.6063 31.4794C27.0613 31.0709 27.3583 30.8389 27.609 30.5603C29.2429 28.7964 30.8397 27.0047 32.4922 25.2593C33.9962 23.6718 35.6023 22.1864 37.5426 21.1466C38.276 20.7567 39.1023 20.4503 39.9192 20.3389C41.0519 20.1904 41.8317 21.0538 41.6089 22.1771C41.4418 23.0034 41.089 23.8018 40.7362 24.563C40.0585 26.002 39.3158 27.4039 38.6195 28.8243C38.4617 29.1399 37.9789 29.8826 38.4153 29.9569C38.8795 29.4649 39.3437 28.9635 39.8171 28.4808C41.0704 27.1718 42.2959 25.8442 43.5863 24.5723C44.7468 23.4211 46.0372 22.4278 47.6897 22.0564C49.0823 21.7408 50.0664 22.6042 49.8436 24.0153C49.7322 24.693 49.5094 25.3893 49.1937 26.002C47.8197 28.7036 46.3993 31.3773 44.9882 34.0603C44.8303 34.3481 44.654 34.6545 44.4033 34.8587C44.1712 35.0444 43.7813 35.2579 43.5585 35.1744C43.3357 35.0908 42.9272 34.7937 42.9736 34.2088C43.02 33.6704 43.1778 33.2712 43.3914 32.7884C44.3754 30.5603 45.4152 28.3601 46.4364 26.1506C46.715 25.5564 47.012 24.9715 47.2998 24.3774C47.4019 24.201 47.3741 24.1731 47.3184 24.1081C47.0492 23.9689 46.3065 24.5352 46.0001 24.8323C44.2455 26.5219 42.5187 28.2301 40.8012 29.9476C40.1235 30.6253 39.5015 31.368 38.8238 32.0457C38.2667 32.6028 37.5797 32.9184 36.8092 32.5471C36.0386 32.1757 35.8251 31.3959 35.9551 30.6532C36.1408 29.567 36.3729 28.4622 36.8185 27.4688C37.4869 25.9556 38.3596 24.5259 39.1394 23.0591C39.2694 22.8084 39.3808 22.5392 39.5943 22.0564C39.1116 22.2607 38.8145 22.3442 38.5452 22.4928C36.7813 23.4768 35.2867 24.8044 33.9405 26.2805C32.3251 28.0537 30.8119 29.9198 29.2151 31.7208C28.5838 32.4357 27.9339 33.1691 27.1819 33.7447C25.7244 34.8773 24.2668 34.2738 24.0812 32.4449C23.9976 31.5816 24.1276 30.6717 24.3318 29.8269C24.8424 27.6824 26.0029 25.8163 27.0984 23.9317C27.3305 23.5325 27.5626 23.1333 27.7111 22.6784C25.9194 23.3376 24.4711 24.4702 23.1621 25.7514C21.1289 27.7381 19.2072 29.8455 17.2205 31.8693C16.7099 32.3892 16.1436 32.8906 15.5216 33.2712C14.4632 33.9118 13.312 33.4197 13.0521 32.2128C12.8571 31.3309 12.8478 30.3561 12.9871 29.4649C13.182 28.1558 14.0362 25.7514 13.999 25.6028C13.999 25.4636 13.8876 25.6028 13.8876 25.6028Z" fill="#81ADC8"/>
</svg>
