<svg width="55" height="55" viewBox="0 0 55 55" fill="none" xmlns="http://www.w3.org/2000/svg">
<path d="M9.92764 31.5998C9.61199 31.2099 8.8043 32.2775 8.21943 31.7669C7.63455 31.2656 8.44224 30.5693 8.77645 30.133C9.35204 29.3717 10.0483 28.6847 10.791 28.0998C11.0788 27.8677 11.7472 27.5242 12.0815 27.9513C12.295 28.2205 12.3507 28.4619 12.0072 29.1117C11.8215 29.4552 11.7287 29.6409 11.2366 30.2351C11.2366 30.4208 11.5152 30.625 11.7287 30.8107C16.1942 34.7006 21.2352 37.3371 27.2604 37.6249C33.2855 37.922 38.4659 36.056 42.4022 31.3027C42.755 30.8849 43.2377 30.495 43.3027 30.0123C43.3491 29.6502 43.1913 29.4645 42.6993 28.7775C42.5414 28.564 42.4672 28.0441 42.755 27.7192C43.2284 27.1622 43.739 27.45 43.9154 27.6171C45.113 28.7868 46.0414 30.1608 46.7191 31.3955C46.8491 31.804 46.6356 32.1382 46.422 32.3425C46.2457 32.5096 45.7815 32.491 45.503 32.3889C45.178 32.2682 44.9088 31.9804 44.4817 31.6648C40.1741 37.3093 34.3532 40.0016 27.2975 39.7416C20.3533 39.5095 14.2724 36.548 9.92764 31.5998Z" fill="black"/>
<path d="M35.1607 21.3966C35.1329 18.955 36.8597 16.9868 39.0135 16.9961C40.8888 17.0054 42.5599 18.9179 42.5784 21.081C42.5877 23.1327 40.7681 25.0359 38.7535 25.0637C36.7204 25.0823 35.1793 23.5133 35.1607 21.3966ZM36.9525 21.1367C36.9711 22.3064 37.7695 23.1513 38.8557 23.1327C39.8026 23.1141 40.7124 22.1857 40.666 21.2574C40.6196 20.1155 40.0161 18.9364 38.5493 19.1035C37.7138 19.1964 36.9339 19.7812 36.9525 21.1367Z" fill="#CD4631"/>
<path d="M18.6266 19.5216C18.6081 21.694 16.8349 23.5322 14.7368 23.5415C12.7407 23.5507 11.1532 21.7868 11.2461 19.5123C11.3482 16.7179 12.8986 15.8545 15.1731 15.6503C16.9556 15.4924 18.6359 17.5163 18.6266 19.5216ZM12.9914 19.3266C12.9821 20.7006 13.7248 21.7311 14.7182 21.7404C15.8229 21.7497 16.8534 20.6728 16.8534 19.4937C16.8534 18.4075 15.8694 17.3678 14.8667 17.3956C13.5948 17.4328 12.9914 18.0548 12.9914 19.3266Z" fill="#81ADC8"/>
</svg>
