<svg width="54" height="54" viewBox="0 0 54 54" fill="none" xmlns="http://www.w3.org/2000/svg">
<path d="M7.79785 18.7781C10.2952 15.8445 13.0339 13.0408 16.0604 10.6548C18.1678 8.99305 18.8919 8.9095 20.0524 8.59385C20.368 8.5103 20.6466 8.31534 20.9158 8.12038C32.2141 0.14564 46.6132 5.79944 49.3983 19.8736C51.2458 29.2131 46.4832 38.4875 38.295 42.2753C38.165 42.3403 37.97 42.3588 37.905 42.461C36.2804 45.0047 32.9754 45.9888 30.9608 46.4901C30.5523 46.6386 30.2367 47.0657 29.8653 47.3442C29.5775 47.5577 29.2897 47.7898 28.9648 47.9384C18.3163 52.8773 6.86947 46.2673 4.36286 35.331C4.01008 33.7899 2.45969 24.4876 7.79785 18.7781ZM29.9767 41.6811C33.7738 41.6626 36.2525 41.0406 38.4714 39.8244C49.1477 33.9663 50.7445 18.054 41.3493 10.2835C35.9647 5.83658 29.0762 5.08459 23.0232 9.34583C15.8283 14.4055 13.2196 24.7754 17.2487 32.6109C20.1452 38.2461 24.7407 41.3562 29.9767 41.6811ZM33.6067 44.0856C34.0709 43.9185 34.1358 43.7978 34.0616 43.7421C34.0616 43.7421 33.8666 43.7421 33.5417 43.7514C25.1863 44.3827 18.9012 41.0591 15.1784 33.5671C11.5392 26.2515 12.4212 19.0659 16.7195 12.1867C16.376 12.3538 16.0975 12.558 15.8469 12.7901C10.0538 18.0354 8.34559 26.92 11.6877 34.5141C14.7699 41.5233 21.2407 45.6824 28.5192 45.1625C30.2274 45.0418 31.9077 44.457 33.6067 44.0856ZM9.06972 20.0036C9.07901 19.7343 8.82834 20.0686 8.79121 20.115C8.66124 20.2914 8.53126 20.477 8.41986 20.6627C6.88804 23.2436 5.93182 26.038 5.80184 29.0367C5.49548 35.8695 7.89069 41.5326 13.6745 45.3946C17.5179 47.9662 21.7885 48.4954 26.2539 47.1028C19.7275 46.4437 14.64 43.4172 11.205 37.8284C7.77 32.2581 7.22226 26.2794 9.06972 20.0036Z" fill="black"/>
<path d="M37.0324 25.9546C38.3135 26.001 38.7313 26.6694 38.3135 27.8763C37.2737 30.8471 34.3494 32.2954 31.3693 31.2556C29.6054 30.6336 28.2221 29.501 27.2659 27.8856C26.5324 26.6416 26.8574 25.9267 28.2964 25.8339C29.8003 25.7318 35.6305 25.8989 37.0324 25.9546ZM36.7446 27.4028C34.1823 27.4028 31.6849 27.4028 29.1597 27.4028C31.7221 30.3829 35.5098 30.4386 36.7446 27.4028Z" fill="black"/>
<path d="M26.5882 20.6904C26.5975 22.1386 25.205 23.4569 23.6824 23.4477C22.3548 23.4384 21.4265 22.2408 21.4172 20.9689C21.3986 19.697 22.6983 18.4437 24.128 18.4066C25.502 18.3602 26.5882 19.3628 26.5882 20.6904ZM23.8031 19.7713C23.1161 19.8827 22.9026 20.5326 22.9583 21.0246C23.0326 21.7394 23.571 21.9158 23.9052 21.9251C24.2209 21.9344 24.8429 21.6188 24.9729 21.006C25.14 20.384 24.7872 19.5392 23.8031 19.7713Z" fill="#CD4631"/>
<path d="M44.3292 21.0805C44.3107 22.4823 43.3173 23.5128 41.9897 23.5036C40.56 23.4943 39.5296 22.3338 39.576 20.7834C39.6131 19.4373 40.6157 18.3975 41.8598 18.4254C43.1502 18.4625 44.3478 19.7436 44.3292 21.0805ZM43.0481 21.0434C43.0481 20.3285 42.6675 19.8458 42.0733 19.8458C41.7112 19.8458 41.0985 20.1243 41.0985 20.8855C41.0985 22.2131 42.0733 22.1388 42.0733 22.1388C42.5932 22.1203 43.0481 21.9068 43.0481 21.0434Z" fill="#81ADC8"/>
</svg>
