<svg width="54" height="54" viewBox="0 0 54 54" fill="none" xmlns="http://www.w3.org/2000/svg">
<path d="M37.3303 15.9468C37.0982 18.2399 36.9311 20.1523 36.699 22.0555C36.569 23.0953 36.142 23.9958 34.9722 24.2465C33.9974 24.4507 32.9855 23.9122 32.4006 22.7146C31.8343 21.5635 31.4258 20.3287 30.9988 19.1125C29.7641 15.6219 27.8609 12.5211 25.5028 9.68954C24.7694 8.80758 24.0453 7.92563 23.2004 6.90442C23.0148 7.52643 22.8662 8.02775 22.7177 8.52907C21.1395 13.9786 20.601 19.5303 20.8424 25.1841C20.9166 27.013 20.7031 28.879 20.4432 30.6987C20.2761 31.8684 19.8397 33.0567 18.4286 33.3167C17.4167 33.5024 16.414 32.6668 15.8013 31.1443C15.3928 30.1231 15.1236 29.0369 14.7522 27.9971C14.548 27.4122 14.2509 26.8645 13.9817 26.2517C10.5745 30.3923 13.174 44.0487 17.7138 46.0447C17.7323 42.3869 19.4127 39.3604 21.3994 36.501C24.2124 32.4533 25.7442 27.9785 26.2548 23.1138C26.2919 22.7518 26.3662 22.3804 26.4312 22.0276C26.7468 20.3751 27.4245 20.1059 28.6593 21.3314C29.4577 22.1205 30.1633 23.0953 30.6274 24.1072C32.9298 29.0647 33.886 34.2079 32.3264 39.6111C32.15 40.2052 31.7508 41.0408 32.0479 41.4678C32.5677 42.1177 33.3847 41.0036 33.5611 40.5487C34.0253 39.3511 34.3131 38.0978 34.6844 36.8631C34.9165 36.0925 35.0558 35.2477 35.4736 34.5793C35.7985 34.0594 36.5041 33.4188 36.9868 33.4652C37.4881 33.5116 38.1844 34.2265 38.3515 34.7835C39.577 38.9333 39.0014 42.7304 35.1765 45.9519C33.2083 47.6136 30.7853 48.1521 28.3065 48.477C25.5121 48.8391 22.7548 48.9505 19.9511 48.3099C18.6143 48.0036 17.2217 47.7993 16.414 47.5022C15.6063 47.2052 14.9193 46.6017 14.5944 46.1004C10.4631 39.7225 9.78543 33.001 12.6912 25.9547C13.2947 24.4971 14.4552 24.1908 15.4764 25.3976C16.2284 26.2889 16.6554 27.4865 17.1289 28.6005C17.4538 29.3804 17.6302 30.2252 17.853 31.0422C18.1315 32.0634 18.54 32.2212 18.8185 32.0448C19.162 31.9427 19.3663 30.7079 19.3291 29.4732C19.2641 27.4401 19.3013 25.3976 19.0877 23.3831C18.4657 17.4786 19.9047 11.9455 22.0028 6.52378C22.5227 5.16835 23.1169 5.00125 24.2309 5.94819C28.7985 9.81951 32.0943 14.5357 33.589 20.403C33.8211 21.2942 33.8953 22.2969 35.0279 23.0024C35.1393 22.139 35.2322 21.4242 35.3343 20.7186C35.5942 18.9733 35.7614 17.2094 36.1513 15.5012C36.3927 14.4707 37.1075 14.2571 37.8595 14.9998C38.8436 15.9746 39.8091 17.0516 40.4496 18.2677C42.8356 22.8168 43.6525 27.7557 43.634 32.8432C43.6154 36.8445 42.8727 40.7251 41.0345 44.2994C40.4125 45.5155 39.3634 46.5182 38.4722 47.5858C38.073 48.0686 37.1632 47.9107 37.581 46.8338C37.6181 46.741 37.6645 46.6296 37.7295 46.5367C41.1831 41.9041 41.5266 36.4824 41.573 31.0236C41.6101 26.6695 40.9788 22.399 38.9457 18.4627C38.5186 17.655 37.9709 16.9309 37.3303 15.9468ZM36.829 34.9878C36.2812 36.8074 35.8542 38.3113 35.3622 39.806C34.9722 40.9851 34.3781 42.0527 33.2083 42.6376C31.8529 43.3246 30.5346 42.5633 30.4603 41.0408C30.4325 40.4187 30.4603 39.7782 30.581 39.1747C31.528 34.3286 31.0823 29.631 29.1885 25.0727C28.8635 24.2929 28.3901 23.578 27.9166 22.7239C27.7495 23.0024 27.6288 24.0144 27.6102 24.4507C27.4895 27.7557 27.1182 31.0236 25.3821 33.9387C24.3423 35.6747 23.1726 37.3365 22.04 39.0262C20.7867 40.9108 19.6726 42.8604 19.2641 45.1256C18.9856 46.676 19.1063 46.7503 20.5917 47.1309C23.7389 47.9293 26.8211 47.4187 29.894 46.806C33.394 46.1097 35.5757 43.8073 36.8754 40.6323C37.5903 38.8962 37.386 37.0952 36.829 34.9878Z" fill="#CD4631"/>
</svg>
