<svg width="18" height="17" viewBox="0 0 18 17" fill="none" xmlns="http://www.w3.org/2000/svg">
<path d="M13.2786 5.10937C13.2786 5.63945 12.8489 6.06917 12.3188 6.06917C11.7887 6.06917 11.359 5.63945 11.359 5.10937C11.359 4.57929 11.7887 4.14957 12.3188 4.14957C12.8489 4.14957 13.2786 4.57929 13.2786 5.10937Z" fill="black"/>
<path fill-rule="evenodd" clip-rule="evenodd" d="M8.79952 11.8279C10.5665 11.8279 11.9988 10.3956 11.9988 8.62863C11.9988 6.86169 10.5665 5.4293 8.79952 5.4293C7.03259 5.4293 5.6002 6.86169 5.6002 8.62863C5.6002 10.3956 7.03259 11.8279 8.79952 11.8279ZM8.79952 10.5482C9.85969 10.5482 10.7191 9.68879 10.7191 8.62863C10.7191 7.56846 9.85969 6.70903 8.79952 6.70903C7.73936 6.70903 6.87993 7.56846 6.87993 8.62863C6.87993 9.68879 7.73936 10.5482 8.79952 10.5482Z" fill="black"/>
<path fill-rule="evenodd" clip-rule="evenodd" d="M2.40088 8.37268C2.40088 6.22253 2.40088 5.14746 2.81933 4.32621C3.1874 3.60382 3.77472 3.0165 4.49711 2.64843C5.31836 2.22998 6.39343 2.22998 8.54358 2.22998H9.05547C11.2056 2.22998 12.2807 2.22998 13.1019 2.64843C13.8243 3.0165 14.4116 3.60382 14.7797 4.32621C15.1982 5.14746 15.1982 6.22253 15.1982 8.37268V8.88457C15.1982 11.0347 15.1982 12.1098 14.7797 12.931C14.4116 13.6534 13.8243 14.2407 13.1019 14.6088C12.2807 15.0273 11.2056 15.0273 9.05547 15.0273H8.54358C6.39343 15.0273 5.31836 15.0273 4.49711 14.6088C3.77472 14.2407 3.1874 13.6534 2.81933 12.931C2.40088 12.1098 2.40088 11.0347 2.40088 8.88457V8.37268ZM8.54358 3.50971H9.05547C10.1517 3.50971 10.8968 3.5107 11.4728 3.55777C12.0339 3.60361 12.3208 3.68669 12.521 3.78867C13.0025 4.03406 13.3941 4.4256 13.6395 4.9072C13.7415 5.10735 13.8245 5.39427 13.8704 5.95532C13.9174 6.53131 13.9184 7.27649 13.9184 8.37268V8.88457C13.9184 9.98076 13.9174 10.7259 13.8704 11.3019C13.8245 11.863 13.7415 12.1499 13.6395 12.3501C13.3941 12.8316 13.0025 13.2232 12.521 13.4686C12.3208 13.5706 12.0339 13.6536 11.4728 13.6995C10.8968 13.7465 10.1517 13.7475 9.05547 13.7475H8.54358C7.44739 13.7475 6.70221 13.7465 6.12622 13.6995C5.56517 13.6536 5.27825 13.5706 5.0781 13.4686C4.5965 13.2232 4.20496 12.8316 3.95957 12.3501C3.85759 12.1499 3.7745 11.863 3.72866 11.3019C3.6816 10.7259 3.68061 9.98076 3.68061 8.88457V8.37268C3.68061 7.27649 3.6816 6.53131 3.72866 5.95532C3.7745 5.39427 3.85759 5.10735 3.95957 4.9072C4.20496 4.4256 4.5965 4.03406 5.0781 3.78867C5.27825 3.68669 5.56517 3.60361 6.12622 3.55777C6.70221 3.5107 7.44739 3.50971 8.54358 3.50971Z" fill="black"/>
</svg>
