<svg width="52" height="52" viewBox="0 0 52 52" fill="none" xmlns="http://www.w3.org/2000/svg">
<g clip-path="url(#clip0_314_2718)">
<path d="M22.9177 47.2768C18.8718 47.2768 14.9048 46.158 11.4551 44.044C8.00537 41.93 5.20746 38.9033 3.37066 35.2983C1.53386 31.6934 0.729728 27.6508 1.04716 23.6173C1.3646 19.5839 2.79124 15.7168 5.16936 12.4436C7.54748 9.17044 10.7844 6.61863 14.5224 5.07034C18.2603 3.52204 22.3536 3.03757 26.3496 3.67049C30.3457 4.3034 34.0889 6.02905 37.1655 8.65665C40.242 11.2843 42.532 14.7114 43.7822 18.5593L41.6958 19.2372C40.5705 15.7742 38.5096 12.6897 35.7407 10.3248C32.9718 7.96001 29.6029 6.40692 26.0064 5.8373C22.41 5.26767 18.726 5.7037 15.3619 7.09716C11.9978 8.49063 9.08451 10.7873 6.9442 13.7331C4.80389 16.679 3.51992 20.1594 3.23422 23.7895C2.94853 27.4196 3.67225 31.0579 5.32537 34.3024C6.97849 37.5468 9.49661 40.2709 12.6013 42.1735C15.7061 44.076 19.2764 45.083 22.9177 45.083L22.9177 47.2768Z" fill="black"/>
<path d="M28.6794 23.1926C29.2745 23.1926 29.7896 23.2917 30.2247 23.4901C30.6662 23.6885 31.0053 23.97 31.2421 24.3347C31.4788 24.6994 31.5972 25.1313 31.5972 25.6304C31.5972 26.1231 31.4788 26.555 31.2421 26.9262C31.0053 27.2909 30.6662 27.5724 30.2247 27.7708C29.7896 27.9627 29.2745 28.0587 28.6794 28.0587H27.3261V29.9111H25.7712V23.1926H28.6794ZM28.593 26.7918C29.0601 26.7918 29.4153 26.6926 29.6584 26.4943C29.9016 26.2895 30.0231 26.0016 30.0231 25.6304C30.0231 25.2529 29.9016 24.965 29.6584 24.7666C29.4153 24.5619 29.0601 24.4595 28.593 24.4595H27.3261V26.7918H28.593ZM35.6708 30.0263C34.9733 30.0263 34.3431 29.8759 33.78 29.5752C33.2233 29.2745 32.785 28.8618 32.4651 28.3371C32.1515 27.806 31.9948 27.2109 31.9948 26.5518C31.9948 25.8928 32.1515 25.3009 32.4651 24.7762C32.785 24.2451 33.2233 23.8292 33.78 23.5285C34.3431 23.2277 34.9733 23.0774 35.6708 23.0774C36.3682 23.0774 36.9953 23.2277 37.552 23.5285C38.1087 23.8292 38.547 24.2451 38.8669 24.7762C39.1868 25.3009 39.3468 25.8928 39.3468 26.5518C39.3468 27.2109 39.1868 27.806 38.8669 28.3371C38.547 28.8618 38.1087 29.2745 37.552 29.5752C36.9953 29.8759 36.3682 30.0263 35.6708 30.0263ZM35.6708 28.7018C36.0675 28.7018 36.4258 28.6122 36.7458 28.433C37.0657 28.2475 37.3152 27.9915 37.4944 27.6652C37.68 27.3389 37.7727 26.9678 37.7727 26.5518C37.7727 26.1359 37.68 25.7648 37.4944 25.4385C37.3152 25.1121 37.0657 24.8594 36.7458 24.6802C36.4258 24.4947 36.0675 24.4019 35.6708 24.4019C35.2741 24.4019 34.9158 24.4947 34.5958 24.6802C34.2759 24.8594 34.0231 25.1121 33.8376 25.4385C33.6584 25.7648 33.5688 26.1359 33.5688 26.5518C33.5688 26.9678 33.6584 27.3389 33.8376 27.6652C34.0231 27.9915 34.2759 28.2475 34.5958 28.433C34.9158 28.6122 35.2741 28.7018 35.6708 28.7018ZM40.1314 23.1926H43.1836C43.913 23.1926 44.5561 23.3333 45.1128 23.6149C45.6759 23.89 46.111 24.2803 46.4181 24.7858C46.7316 25.2913 46.8884 25.88 46.8884 26.5518C46.8884 27.2237 46.7316 27.8124 46.4181 28.3179C46.111 28.8234 45.6759 29.2169 45.1128 29.4984C44.5561 29.7736 43.913 29.9111 43.1836 29.9111H40.1314V23.1926ZM43.1068 28.6346C43.7787 28.6346 44.313 28.449 44.7097 28.0779C45.1128 27.7004 45.3143 27.1917 45.3143 26.5518C45.3143 25.912 45.1128 25.4065 44.7097 25.0354C44.313 24.6578 43.7787 24.4691 43.1068 24.4691H41.6863V28.6346H43.1068Z" fill="#CD4631"/>
<path d="M29.025 39.0263C28.3275 39.0263 27.6972 38.8759 27.1342 38.5752C26.5775 38.2745 26.1392 37.8618 25.8192 37.3371C25.5057 36.806 25.3489 36.2109 25.3489 35.5518C25.3489 34.8928 25.5057 34.3009 25.8192 33.7762C26.1392 33.2451 26.5775 32.8292 27.1342 32.5285C27.6972 32.2277 28.3275 32.0774 29.025 32.0774C29.7224 32.0774 30.3495 32.2277 30.9062 32.5285C31.4628 32.8292 31.9011 33.2451 32.2211 33.7762C32.541 34.3009 32.701 34.8928 32.701 35.5518C32.701 36.2109 32.541 36.806 32.2211 37.3371C31.9011 37.8618 31.4628 38.2745 30.9062 38.5752C30.3495 38.8759 29.7224 39.0263 29.025 39.0263ZM29.025 37.7018C29.4217 37.7018 29.78 37.6122 30.0999 37.433C30.4199 37.2475 30.6694 36.9915 30.8486 36.6652C31.0341 36.3389 31.1269 35.9678 31.1269 35.5518C31.1269 35.1359 31.0341 34.7648 30.8486 34.4385C30.6694 34.1121 30.4199 33.8594 30.0999 33.6802C29.78 33.4947 29.4217 33.4019 29.025 33.4019C28.6282 33.4019 28.2699 33.4947 27.95 33.6802C27.63 33.8594 27.3773 34.1121 27.1917 34.4385C27.0126 34.7648 26.923 35.1359 26.923 35.5518C26.923 35.9678 27.0126 36.3389 27.1917 36.6652C27.3773 36.9915 27.63 37.2475 27.95 37.433C28.2699 37.6122 28.6282 37.7018 29.025 37.7018ZM36.6145 33.4019C36.0771 33.4019 35.6707 33.5203 35.3956 33.757C35.1205 33.9874 34.9829 34.3361 34.9829 34.8032V35.2159H37.7471V36.4637H34.9829V38.9111H33.428V34.8128C33.428 33.949 33.6968 33.2771 34.2342 32.7972C34.7781 32.3173 35.5364 32.0774 36.509 32.0774C36.8929 32.0774 37.2544 32.119 37.5935 32.2022C37.9327 32.2789 38.227 32.3941 38.4765 32.5477L37.9967 33.7762C37.6127 33.5267 37.152 33.4019 36.6145 33.4019ZM28.9866 48.0263C28.3019 48.0263 27.6812 47.8791 27.1246 47.5848C26.5743 47.2841 26.1392 46.8714 25.8192 46.3467C25.5057 45.8156 25.3489 45.2173 25.3489 44.5518C25.3489 43.8864 25.5057 43.2913 25.8192 42.7666C26.1392 42.2355 26.5743 41.8228 27.1246 41.5285C27.6812 41.2277 28.3051 41.0774 28.9962 41.0774C29.5784 41.0774 30.1031 41.1798 30.5702 41.3845C31.0437 41.5893 31.4404 41.8836 31.7604 42.2675L30.7622 43.1889C30.3079 42.6642 29.7448 42.4019 29.0729 42.4019C28.657 42.4019 28.2859 42.4947 27.9596 42.6802C27.6332 42.8594 27.3773 43.1121 27.1917 43.4385C27.0126 43.7648 26.923 44.1359 26.923 44.5518C26.923 44.9678 27.0126 45.3389 27.1917 45.6652C27.3773 45.9915 27.6332 46.2475 27.9596 46.433C28.2859 46.6122 28.657 46.7018 29.0729 46.7018C29.7448 46.7018 30.3079 46.4362 30.7622 45.9052L31.7604 46.8266C31.4404 47.2169 31.0437 47.5144 30.5702 47.7192C30.0967 47.9239 29.5688 48.0263 28.9866 48.0263ZM35.4498 41.0774C36.0705 41.0774 36.6112 41.199 37.0719 41.4421C37.5326 41.6853 37.8909 42.0436 38.1468 42.5171C38.4028 42.9906 38.5308 43.5633 38.5308 44.2351V47.9111H36.9759V46.2987H33.9045V47.9111H32.3689V44.2351C32.3689 43.5633 32.4968 42.9906 32.7528 42.5171C33.0087 42.0436 33.3671 41.6853 33.8278 41.4421C34.2885 41.199 34.8291 41.0774 35.4498 41.0774ZM36.9759 45.0509V44.0911C36.9759 43.5345 36.8383 43.1153 36.5632 42.8338C36.288 42.5459 35.9137 42.4019 35.4402 42.4019C34.9603 42.4019 34.5828 42.5459 34.3077 42.8338C34.0389 43.1153 33.9045 43.5345 33.9045 44.0911V45.0509H36.9759ZM41.8891 48.0263C41.358 48.0263 40.8429 47.9559 40.3438 47.8152C39.8511 47.668 39.4544 47.4792 39.1537 47.2489L39.6815 46.0779C39.9695 46.2891 40.3118 46.4586 40.7085 46.5866C41.1052 46.7146 41.502 46.7786 41.8987 46.7786C42.3402 46.7786 42.6665 46.7146 42.8777 46.5866C43.0888 46.4522 43.1944 46.2763 43.1944 46.0587C43.1944 45.8988 43.1304 45.7676 43.0024 45.6652C42.8809 45.5564 42.7209 45.47 42.5225 45.4061C42.3306 45.3421 42.0682 45.2717 41.7355 45.1949C41.2236 45.0733 40.8045 44.9518 40.4782 44.8302C40.1518 44.7086 39.8703 44.5135 39.6336 44.2447C39.4032 43.976 39.288 43.6176 39.288 43.1697C39.288 42.7794 39.3936 42.4275 39.6048 42.114C39.8159 41.794 40.1326 41.5413 40.555 41.3557C40.9837 41.1702 41.5052 41.0774 42.1194 41.0774C42.5481 41.0774 42.9672 41.1286 43.3768 41.2309C43.7863 41.3333 44.1446 41.4805 44.4517 41.6725L43.9718 42.853C43.3512 42.5011 42.7305 42.3251 42.1098 42.3251C41.6747 42.3251 41.3516 42.3955 41.1404 42.5363C40.9357 42.677 40.8333 42.8626 40.8333 43.093C40.8333 43.3233 40.9517 43.4961 41.1884 43.6112C41.4316 43.72 41.7995 43.8288 42.2922 43.9376C42.8041 44.0591 43.2232 44.1807 43.5495 44.3023C43.8759 44.4239 44.1542 44.6158 44.3845 44.8782C44.6213 45.1405 44.7397 45.4956 44.7397 45.9435C44.7397 46.3275 44.6309 46.6794 44.4133 46.9993C44.2022 47.3129 43.8823 47.5624 43.4535 47.748C43.0248 47.9335 42.5033 48.0263 41.8891 48.0263ZM50.2476 43.0738C49.6717 42.741 49.0542 42.5267 48.3951 42.4307V47.9111H46.8403V42.4307C46.1812 42.5267 45.5605 42.741 44.9783 43.0738L44.4504 41.9124C44.9111 41.6373 45.4102 41.4293 45.9477 41.2885C46.4852 41.1478 47.0386 41.0774 47.6081 41.0774C48.184 41.0774 48.7407 41.1478 49.2782 41.2885C49.822 41.4293 50.3211 41.6373 50.7754 41.9124L50.2476 43.0738Z" fill="black"/>
</g>
<defs>
<clipPath id="clip0_314_2718">
<rect width="50.7321" height="50.7321" fill="white" transform="translate(0.979736 0.658691)"/>
</clipPath>
</defs>
</svg>
