<svg width="56" height="16" viewBox="0 0 56 16" fill="none" xmlns="http://www.w3.org/2000/svg">
<path d="M7.94289 0.540527C6.48206 0.540527 5.05405 0.982809 3.83942 1.81143C2.62483 2.6401 1.67816 3.8179 1.1191 5.19586C0.560077 6.57386 0.413813 8.09016 0.698822 9.553C0.983788 11.0159 1.68722 12.3596 2.72018 13.4143C3.75314 14.4689 5.06922 15.1872 6.50195 15.4781C7.93469 15.7691 9.41976 15.6198 10.7693 15.049C12.119 14.4782 13.2725 13.5116 14.0841 12.2715C14.8957 11.0313 15.3288 9.57332 15.3288 8.0818C15.3288 6.08171 14.5507 4.16357 13.1656 2.74933C11.7804 1.33503 9.90178 0.540527 7.94289 0.540527ZM11.3323 11.4161C11.3009 11.4694 11.2594 11.5157 11.2102 11.5525C11.1611 11.5893 11.1053 11.6157 11.046 11.6303C10.9868 11.6448 10.9253 11.6472 10.8652 11.6373C10.805 11.6274 10.7474 11.6054 10.6957 11.5726C8.96266 10.4892 6.78163 10.2485 4.21157 10.8443C4.15309 10.8586 4.09246 10.8608 4.03312 10.8509C3.97383 10.841 3.91698 10.8192 3.86602 10.7868C3.81501 10.7543 3.77084 10.7118 3.73604 10.6618C3.70123 10.6117 3.67657 10.5551 3.66338 10.4952C3.64933 10.4352 3.64709 10.3729 3.65667 10.3119C3.6663 10.2509 3.68757 10.1925 3.71932 10.1399C3.75108 10.0874 3.79271 10.0418 3.84174 10.0056C3.89081 9.96953 3.94637 9.94364 4.00523 9.92948C6.817 9.27344 9.23379 9.55632 11.1791 10.7721C11.2828 10.8369 11.3572 10.9411 11.3859 11.0617C11.4147 11.1825 11.3954 11.3099 11.3323 11.4161ZM12.2342 9.36372C12.1518 9.49312 12.0239 9.58522 11.8769 9.62107C11.7299 9.65691 11.575 9.63372 11.4443 9.55632C9.20302 8.27979 6.55712 7.96377 4.08778 8.6776C4.01095 8.72137 3.92549 8.74699 3.8377 8.75261C3.74987 8.75823 3.66196 8.74372 3.58036 8.71013C3.49877 8.67654 3.42559 8.62476 3.36617 8.55851C3.30674 8.49231 3.26257 8.41331 3.23692 8.32741C3.21127 8.24147 3.20478 8.15079 3.21792 8.06197C3.23107 7.97315 3.26351 7.88849 3.31289 7.81415C3.36226 7.7398 3.42731 7.67771 3.50324 7.63235C3.5792 7.58703 3.66411 7.55959 3.75177 7.55216C5.13006 7.14705 6.57375 7.02725 7.99802 7.19989C9.42229 7.37248 10.7984 7.83397 12.0456 8.55727C12.1723 8.64136 12.2625 8.77195 12.2976 8.92202C12.3327 9.07213 12.31 9.23025 12.2342 9.36372ZM12.3108 7.22715C9.95295 5.78268 6.00945 5.65027 3.73411 6.35445C3.55901 6.40875 3.36995 6.38976 3.20856 6.3017C3.04717 6.21367 2.92664 6.06378 2.87349 5.88499C2.82034 5.70625 2.8389 5.51321 2.92514 5.34841C3.01133 5.18364 3.15816 5.06057 3.33325 5.00632C5.94461 4.19982 10.2771 4.3563 13.0182 6.01139C13.1591 6.11437 13.2569 6.26771 13.2921 6.44097C13.3273 6.61418 13.2973 6.79461 13.2082 6.94635C13.119 7.09806 12.9772 7.20994 12.8109 7.25972C12.6447 7.30955 12.4661 7.29362 12.3108 7.21511V7.22715Z" fill="#1ED760"/>
<path d="M23.035 6.8867C21.6201 6.53761 21.3666 6.28488 21.3666 5.79135C21.3666 5.29782 21.8087 4.98485 22.4691 4.98485C23.1768 5.01193 23.8566 5.27636 24.4023 5.73718C24.4134 5.74298 24.4255 5.74599 24.4379 5.74599C24.45 5.74599 24.4624 5.74298 24.4732 5.73718C24.4964 5.73262 24.5174 5.71983 24.532 5.70107L25.2277 4.70197C25.2414 4.68396 25.2492 4.6617 25.2492 4.63878C25.2492 4.61585 25.2414 4.59359 25.2277 4.57558C24.4607 3.9346 23.4952 3.59322 22.5044 3.6126C20.9777 3.6126 19.9108 4.55151 19.9108 5.88765C19.9108 7.32606 20.8303 7.83764 22.4219 8.22885C23.7775 8.54784 24.0074 8.83072 24.0074 9.29415C24.0074 9.75754 23.5416 10.1488 22.8283 10.1488C21.9853 10.1428 21.1775 9.80171 20.5768 9.19786C20.554 9.19002 20.5291 9.19002 20.5059 9.19786C20.4818 9.20379 20.4595 9.21627 20.441 9.23397L19.6513 10.1668C19.6349 10.1847 19.6255 10.2084 19.6255 10.233C19.6255 10.2577 19.6349 10.2813 19.6513 10.2992C20.5093 11.084 21.6235 11.5133 22.7755 11.503C24.4199 11.503 25.4872 10.5821 25.4872 9.16174C25.4636 7.97607 24.7559 7.31402 23.035 6.8867Z" fill="black"/>
<path d="M29.189 5.45903C28.8483 5.45686 28.5118 5.53444 28.2055 5.6857C27.8987 5.83696 27.6301 6.05797 27.4204 6.33173V5.66968C27.4191 5.64521 27.4084 5.62224 27.3908 5.60547C27.3732 5.58869 27.35 5.57936 27.3263 5.5794H26.0472C26.0231 5.57936 25.9999 5.58869 25.9823 5.60547C25.9647 5.62224 25.9544 5.64521 25.9526 5.66968V13.0123C25.9526 13.0379 25.9625 13.0624 25.9801 13.0804C25.9982 13.0985 26.0218 13.1086 26.0472 13.1086H27.3143C27.3392 13.1086 27.3633 13.0985 27.3809 13.0804C27.3985 13.0624 27.4088 13.0379 27.4088 13.0123V10.7072C27.6254 10.9695 27.8965 11.1795 28.2025 11.322C28.508 11.4646 28.841 11.5362 29.177 11.5318C30.5034 11.5318 31.8475 10.4906 31.8475 8.49238C31.8475 6.49424 30.515 5.45903 29.189 5.45903ZM30.3676 8.46831C30.39 8.68356 30.3681 8.90112 30.3036 9.10726C30.2392 9.31339 30.1335 9.50365 29.9934 9.66597C29.8529 9.8283 29.6814 9.95916 29.4894 10.0504C29.2969 10.1415 29.0885 10.191 28.8766 10.1957C28.6639 10.1889 28.4551 10.1383 28.2622 10.047C28.0693 9.95553 27.8965 9.8252 27.7547 9.66376C27.6125 9.50236 27.5038 9.31317 27.435 9.10774C27.3667 8.90227 27.3397 8.68476 27.3556 8.46831C27.3405 8.25234 27.368 8.03549 27.4372 7.83073C27.5059 7.626 27.6147 7.43757 27.7569 7.27679C27.8987 7.11606 28.0714 6.98626 28.2635 6.89518C28.456 6.80415 28.6644 6.75374 28.8766 6.74702C29.091 6.75078 29.3024 6.80012 29.4971 6.89191C29.6917 6.98369 29.8658 7.11588 30.0076 7.28007C30.1498 7.4443 30.2568 7.63689 30.3217 7.84564C30.3865 8.05435 30.4085 8.2746 30.3852 8.49238L30.3676 8.46831Z" fill="black"/>
<path d="M35.3017 5.45937C34.7126 5.47012 34.1398 5.65874 33.6555 6.0014C33.1713 6.34411 32.7975 6.82551 32.5809 7.38494C32.3643 7.94432 32.3149 8.55671 32.4387 9.14477C32.5629 9.73283 32.8546 10.2703 33.277 10.6893C33.6998 11.1083 34.2348 11.3901 34.814 11.4992C35.3932 11.6083 35.9913 11.5397 36.5327 11.3022C37.0737 11.0647 37.5343 10.6688 37.8553 10.1645C38.1767 9.66025 38.3442 9.07016 38.3374 8.46865C38.3318 8.06743 38.2493 7.67118 38.0937 7.30267C37.9378 6.93416 37.7126 6.60061 37.4307 6.3211C37.1489 6.04154 36.8154 5.82155 36.4502 5.67369C36.085 5.52584 35.6944 5.453 35.3017 5.45937ZM35.3017 10.2321C35.0838 10.2292 34.869 10.1813 34.6696 10.0914C34.4706 10.0015 34.291 9.87143 34.1424 9.70893C33.9937 9.54647 33.879 9.35498 33.8046 9.14597C33.7303 8.93695 33.6981 8.71475 33.7101 8.49272C33.6964 8.27375 33.7269 8.05425 33.7991 7.84771C33.8717 7.64122 33.9851 7.45203 34.1321 7.29191C34.279 7.13176 34.4565 7.00404 34.6533 6.91659C34.8505 6.82914 35.0632 6.78383 35.278 6.78347C35.4963 6.78484 35.7124 6.83127 35.9127 6.92004C36.1133 7.00877 36.2942 7.138 36.4446 7.29988C36.5946 7.46181 36.7114 7.65308 36.7875 7.86218C36.8636 8.07128 36.8975 8.29397 36.8872 8.5168C36.9009 8.73758 36.87 8.9589 36.7965 9.16694C36.723 9.37503 36.6083 9.56541 36.4597 9.72628C36.3106 9.88719 36.1314 10.0151 35.932 10.1021C35.7326 10.1891 35.5182 10.2333 35.3017 10.2321Z" fill="black"/>
<path d="M41.9864 5.58011H40.5895V4.12364C40.5895 4.09912 40.5805 4.07549 40.5637 4.05757C40.5474 4.03969 40.525 4.02889 40.501 4.02734H39.2334C39.2085 4.02734 39.1844 4.03748 39.1668 4.05553C39.1492 4.07359 39.1393 4.09811 39.1393 4.12364V5.58011H38.5145C38.5029 5.58011 38.4913 5.58245 38.4806 5.58701C38.4699 5.59153 38.46 5.59821 38.4518 5.60657C38.4436 5.61494 38.4372 5.6249 38.4329 5.63587C38.4282 5.6468 38.426 5.65857 38.426 5.67039V6.78384C38.426 6.80836 38.435 6.83199 38.4514 6.84991C38.4681 6.86779 38.4905 6.87859 38.5145 6.88014H39.1041V9.757C39.1041 10.9186 39.6932 11.5084 40.7897 11.5084C41.2022 11.5203 41.61 11.4162 41.9688 11.2075C41.9829 11.2005 41.9954 11.1894 42.0036 11.1755C42.0122 11.1616 42.016 11.1455 42.016 11.1293V10.07C42.016 10.0536 42.0126 10.0374 42.0053 10.0227C41.998 10.0081 41.9877 9.99536 41.9748 9.98571C41.9606 9.97664 41.9443 9.97182 41.9275 9.97182C41.9107 9.97182 41.8944 9.97664 41.8802 9.98571C41.6499 10.1048 41.3956 10.1666 41.1373 10.1663C40.7308 10.1663 40.5482 9.97969 40.5482 9.56441V6.88014H41.9451C41.97 6.88014 41.9941 6.87 42.0117 6.85195C42.0293 6.83389 42.0392 6.80937 42.0392 6.78384V5.67039C42.0401 5.65171 42.0354 5.63326 42.0259 5.6172C42.0165 5.60118 42.0027 5.5883 41.9864 5.58011Z" fill="black"/>
<path d="M46.8487 5.58735V5.40679C46.8487 4.87719 47.0433 4.64247 47.4855 4.64247C47.7312 4.64534 47.9749 4.69221 48.2047 4.7809C48.2176 4.78687 48.2318 4.78997 48.246 4.78997C48.2602 4.78997 48.2743 4.78687 48.2872 4.7809C48.2984 4.77156 48.3079 4.75961 48.3139 4.74602C48.3199 4.73244 48.3229 4.71761 48.3225 4.70265V3.60124C48.3233 3.58013 48.3178 3.55929 48.3061 3.5419C48.2941 3.5245 48.2774 3.51154 48.2576 3.50494C47.9134 3.4125 47.5581 3.37196 47.2027 3.38457C46.0237 3.38457 45.4341 4.05866 45.4341 5.32859V5.60541H44.8446C44.8214 5.60541 44.7986 5.61492 44.7823 5.63187C44.7656 5.64882 44.7561 5.67174 44.7561 5.69569V6.81515C44.7561 6.83967 44.7651 6.8633 44.7819 6.88123C44.7982 6.8991 44.8206 6.9099 44.8446 6.91145H45.4341V11.3532C45.4341 11.3771 45.4436 11.4001 45.4599 11.417C45.4767 11.4339 45.499 11.4434 45.5227 11.4434H46.7662C46.7902 11.4435 46.8134 11.4342 46.831 11.4174C46.8487 11.4006 46.859 11.3776 46.8607 11.3532V6.88136H48.0397L49.8552 11.3171C49.6489 11.7865 49.4427 11.8768 49.1655 11.8768C48.921 11.87 48.6821 11.8018 48.4699 11.6782C48.4578 11.6723 48.4449 11.6692 48.4316 11.6692C48.4183 11.6692 48.4054 11.6723 48.3934 11.6782C48.3813 11.6817 48.3706 11.6878 48.3616 11.6961C48.3521 11.7045 48.3448 11.7148 48.3401 11.7263L47.9452 12.6832C47.9366 12.705 47.9362 12.7293 47.9435 12.7514C47.9512 12.7736 47.9663 12.7922 47.9865 12.8036C48.3985 13.0449 48.8673 13.1676 49.3421 13.1587C50.2737 13.1587 50.7923 12.7133 51.2521 11.5157L53.4507 5.71374C53.458 5.69985 53.4619 5.68436 53.4619 5.6686C53.4619 5.65289 53.458 5.6374 53.4507 5.62346C53.4417 5.61178 53.4301 5.60244 53.4168 5.5962C53.4035 5.58992 53.3889 5.58691 53.3743 5.58735H52.0186C51.9997 5.58859 51.9817 5.59478 51.9662 5.60536C51.9507 5.61589 51.9383 5.63045 51.9301 5.64754L50.58 9.5897L49.1243 5.64754C49.117 5.62961 49.1049 5.61426 49.089 5.60355C49.0731 5.59279 49.0547 5.58717 49.0357 5.58735H46.8487Z" fill="black"/>
<path d="M44.0311 5.58057H42.764C42.712 5.58057 42.6694 5.62367 42.6694 5.67686V11.3223C42.6694 11.3755 42.712 11.4186 42.764 11.4186H44.0311C44.0835 11.4186 44.1256 11.3755 44.1256 11.3223V5.67686C44.1256 5.62367 44.0835 5.58057 44.0311 5.58057Z" fill="black"/>
<path d="M43.4007 3.00441C43.2197 3.00322 43.0422 3.05696 42.8914 3.15873C42.7401 3.26054 42.6223 3.40587 42.5523 3.57625C42.4822 3.74667 42.4633 3.93445 42.4977 4.11585C42.5325 4.29726 42.6189 4.4641 42.7465 4.59521C42.8742 4.72629 43.0371 4.81575 43.2141 4.85227C43.3916 4.88874 43.5756 4.87064 43.7432 4.80021C43.9104 4.72974 44.0535 4.61013 44.1541 4.45657C44.2551 4.30301 44.3088 4.12236 44.3088 3.93755C44.3093 3.81528 44.2865 3.69408 44.2414 3.58089C44.1958 3.46771 44.1292 3.36483 44.0449 3.27807C43.9603 3.19135 43.8601 3.12252 43.7497 3.07555C43.6388 3.02858 43.5206 3.00441 43.4007 3.00441Z" fill="black"/>
<path d="M54.5063 7.39149C54.389 7.39228 54.273 7.36931 54.1647 7.32393C54.0563 7.27852 53.9579 7.21159 53.875 7.12704C53.792 7.04245 53.7267 6.94192 53.682 6.83129C53.6377 6.72063 53.6154 6.60204 53.6162 6.48248C53.6162 6.23976 53.7104 6.00701 53.8784 5.83539C54.0465 5.66381 54.2747 5.5674 54.5124 5.5674C54.6293 5.56661 54.7453 5.58958 54.854 5.63495C54.9623 5.68037 55.0608 5.7473 55.1437 5.83185C55.2262 5.91644 55.292 6.01697 55.3363 6.12764C55.381 6.23826 55.4033 6.35685 55.4025 6.47646C55.4025 6.71912 55.3083 6.95188 55.1403 7.1235C54.9718 7.29507 54.744 7.39149 54.5063 7.39149ZM54.5063 5.65771C54.346 5.65651 54.1892 5.70401 54.0555 5.79418C53.9218 5.88435 53.8174 6.01308 53.7555 6.16402C53.6936 6.31497 53.6768 6.48133 53.7078 6.64188C53.7387 6.80239 53.8161 6.94993 53.9291 7.06564C54.0426 7.18135 54.187 7.26001 54.3443 7.29162C54.5016 7.32327 54.6645 7.30641 54.8124 7.24324C54.9602 7.18007 55.0861 7.07343 55.1747 6.93691C55.2628 6.80035 55.3092 6.64006 55.3083 6.47646C55.3092 6.3692 55.289 6.26287 55.2495 6.16358C55.2095 6.06429 55.151 5.97399 55.0771 5.89785C55.0032 5.82176 54.9151 5.76133 54.8184 5.72012C54.7212 5.67891 54.6172 5.65771 54.5124 5.65771H54.5063ZM54.7066 6.57273L54.9546 6.93395H54.7423L54.5179 6.60288H54.3237V6.93395H54.1406V5.97678H54.5596C54.7775 5.97678 54.925 6.09116 54.925 6.27779C54.9263 6.34392 54.9061 6.40868 54.8678 6.46198C54.8295 6.51532 54.775 6.55423 54.7126 6.57273H54.7066ZM54.5536 6.13932H54.3237V6.44033H54.5536C54.6714 6.44033 54.7423 6.38615 54.7423 6.28983C54.7423 6.19351 54.6774 6.13932 54.5596 6.13932H54.5536Z" fill="black"/>
</svg>
