<svg width="17" height="17" viewBox="0 0 17 17" fill="none" xmlns="http://www.w3.org/2000/svg">
<path d="M4.51064 10.5783C4.59099 9.913 4.86385 9.54051 5.37804 9.15866C6.11376 8.64151 7.03277 8.93404 7.03277 8.93404V7.19861C7.25619 7.1929 7.4797 7.20615 7.70069 7.23819V9.47152C7.70069 9.47152 6.78195 9.17898 6.04624 9.6964C5.53233 10.078 5.25891 10.4507 5.17884 11.116C5.17633 11.4773 5.24412 11.9495 5.55632 12.3578C5.47913 12.3183 5.40046 12.2732 5.32029 12.2225C4.63256 11.7607 4.50729 11.0679 4.51064 10.5783ZM11.4953 3.98981C10.9892 3.43522 10.7978 2.87528 10.7286 2.48193H11.3653C11.3653 2.48193 11.2384 3.5133 12.1635 4.52755L12.1764 4.54119C11.927 4.38434 11.6983 4.19921 11.4953 3.98981ZM14.5623 5.56212V7.75053C14.5623 7.75053 13.7499 7.71871 13.1487 7.56576C12.3092 7.35184 11.7696 7.02373 11.7696 7.02373C11.7696 7.02373 11.3968 6.78976 11.3667 6.77345V11.2925C11.3667 11.5441 11.2978 12.1725 11.0877 12.6966C10.8135 13.3823 10.3902 13.8323 10.3124 13.9243C10.3124 13.9243 9.79763 14.5326 8.88949 14.9423C8.07092 15.3118 7.35222 15.3025 7.13739 15.3118C7.13739 15.3118 5.89502 15.361 4.77708 14.6345C4.53534 14.4744 4.30968 14.293 4.10303 14.0927L4.10861 14.0968C5.22683 14.8233 6.46892 14.7741 6.46892 14.7741C6.68402 14.7647 7.40272 14.7741 8.22102 14.4045C9.12831 13.9949 9.6439 13.3865 9.6439 13.3865C9.7209 13.2945 10.1461 12.8445 10.4192 12.1586C10.6288 11.6348 10.6982 11.0061 10.6982 10.7545V6.23597C10.7284 6.25255 11.1008 6.48653 11.1008 6.48653C11.1008 6.48653 11.6407 6.8149 12.4802 7.02855C13.0817 7.1815 13.8939 7.21332 13.8939 7.21332V5.49848C14.1717 5.56079 14.4086 5.57763 14.5623 5.56212Z" fill="black"/>
<path d="M13.8943 5.49848V7.21279C13.8943 7.21279 13.0822 7.18096 12.4807 7.02801C11.6412 6.81409 11.1013 6.48599 11.1013 6.48599C11.1013 6.48599 10.7289 6.25202 10.6987 6.23544V10.755C10.6987 11.0067 10.6298 11.6353 10.4197 12.1592C10.1455 12.845 9.72223 13.2951 9.64439 13.3871C9.64439 13.3871 9.12936 13.9954 8.22151 14.4051C7.40321 14.7746 6.68452 14.7653 6.46941 14.7746C6.46941 14.7746 5.22732 14.8238 4.1091 14.0973L4.10352 14.0933C3.98546 13.979 3.87433 13.8582 3.77067 13.7317C3.41384 13.2967 3.1951 12.7822 3.14014 12.6354C3.14005 12.6348 3.14005 12.6342 3.14014 12.6335C3.0517 12.3784 2.86589 11.7658 2.89128 11.1725C2.9362 10.1256 3.30447 9.48302 3.40184 9.32204C3.65972 8.88307 3.99512 8.49031 4.39312 8.16126C4.74433 7.87731 5.14241 7.65139 5.57104 7.49275C6.0344 7.3065 6.53059 7.20667 7.03298 7.19861V8.93404C7.03298 8.93404 6.11397 8.64258 5.37853 9.15866C4.86434 9.54051 4.59148 9.913 4.51113 10.5783C4.50778 11.0679 4.63305 11.7607 5.32022 12.2228C5.40039 12.2736 5.47906 12.3187 5.55625 12.3581C5.6763 12.5142 5.82242 12.6501 5.9887 12.7605C6.65996 13.1854 7.22242 13.2151 7.94167 12.9392C8.42127 12.7547 8.78229 12.3389 8.94969 11.8781C9.05487 11.5904 9.05348 11.3008 9.05348 11.0013V2.48193H10.7275C10.7966 2.87528 10.988 3.43522 11.4941 3.98981C11.6972 4.19921 11.9258 4.38434 12.1752 4.54119C12.2488 4.61739 12.6255 4.99416 13.109 5.22546C13.359 5.34502 13.6225 5.43663 13.8943 5.49848Z" fill="black"/>
<path d="M2.47388 12.1025V12.1039L2.51564 12.2171C2.51085 12.2039 2.49533 12.1638 2.47388 12.1025Z" fill="black"/>
<path d="M5.57066 7.49291C5.14203 7.65154 4.74395 7.87746 4.39274 8.16141C3.99461 8.49121 3.6593 8.88479 3.40174 9.3246C3.30437 9.48504 2.9361 10.1281 2.89118 11.175C2.86579 11.7684 3.0516 12.381 3.14004 12.6361C3.13995 12.6367 3.13995 12.6373 3.14004 12.638C3.19584 12.7834 3.41374 13.2979 3.77058 13.7343C3.87423 13.8608 3.98536 13.9815 4.10342 14.0958C3.72515 13.8451 3.3878 13.5419 3.10238 13.1963C2.74861 12.765 2.53044 12.2558 2.47352 12.1056C2.47345 12.1045 2.47345 12.1034 2.47352 12.1024V12.1005C2.3848 11.8457 2.19843 11.2328 2.22438 10.6386C2.2693 9.59174 2.63757 8.94917 2.73494 8.7882C2.99242 8.34834 3.32775 7.95474 3.72594 7.625C4.07707 7.34096 4.47518 7.11503 4.90386 6.9565C5.17125 6.85017 5.44981 6.77173 5.73471 6.72253C6.16408 6.65069 6.6026 6.64446 7.034 6.70408V7.19877C6.53114 7.20665 6.03446 7.30649 5.57066 7.49291Z" fill="black"/>
<path d="M10.729 2.48235H9.05498V11.002C9.05498 11.3015 9.05498 11.5903 8.95119 11.8788C8.78212 12.3393 8.42249 12.7551 7.94318 12.9396C7.22365 13.2166 6.66119 13.1859 5.9902 12.761C5.82363 12.651 5.67714 12.5155 5.55664 12.3599C6.1283 12.6521 6.63998 12.647 7.27386 12.4032C7.7529 12.2187 8.11309 11.8029 8.2816 11.3421C8.38706 11.0544 8.38567 10.7648 8.38567 10.4656V1.94434H10.6972C10.6972 1.94434 10.6712 2.15612 10.729 2.48235ZM13.8945 5.02479V5.49889C13.6231 5.43695 13.36 5.34534 13.1105 5.22588C12.627 4.99458 12.2503 4.61781 12.1767 4.5416C12.2621 4.59538 12.3508 4.64431 12.4423 4.68813C13.0301 4.96944 13.609 5.0534 13.8945 5.02479Z" fill="black"/>
</svg>
