<svg width="18" height="17" viewBox="0 0 18 17" fill="none" xmlns="http://www.w3.org/2000/svg">
<path d="M7.04143 14.7992C5.37807 14.7992 3.82753 14.3154 2.52246 13.4807C3.63051 13.5524 5.58596 13.3807 6.80225 12.2205C4.97255 12.1365 4.14739 10.7333 4.03977 10.1336C4.19523 10.1935 4.93668 10.2655 5.35523 10.0976C3.25048 9.56984 2.9276 7.72276 2.99935 7.15904C3.39399 7.43491 4.06368 7.53086 4.32678 7.50687C2.36553 6.10357 3.0711 3.99263 3.41791 3.53686C4.82537 5.48678 6.93472 6.58193 9.54425 6.64285C9.49505 6.42705 9.46907 6.20239 9.46907 5.97164C9.46907 4.31562 10.8076 2.97314 12.4588 2.97314C13.3215 2.97314 14.0988 3.33963 14.6445 3.92583C15.221 3.79074 16.0887 3.4745 16.5128 3.20103C16.299 3.96865 15.6334 4.60899 15.2308 4.84633C15.2275 4.83822 15.2341 4.8544 15.2308 4.84633C15.5845 4.79283 16.5414 4.60893 16.9194 4.35245C16.7325 4.78369 16.0268 5.5007 15.4477 5.90211C15.5554 10.6539 11.9198 14.7992 7.04143 14.7992Z" fill="#CD4631"/>
</svg>
