<svg width="18" height="17" viewBox="0 0 18 17" fill="none" xmlns="http://www.w3.org/2000/svg">
<g clip-path="url(#clip0_314_220)">
<path id='color' d="M7.96899 5.67462V8.16794V9.16452V11.6578H10.0257V9.16452V8.16794V5.67462H7.96899Z" fill="white"/>
<path d="M1.79939 9.13416C2.36749 9.13416 2.82802 8.67363 2.82802 8.10553C2.82802 7.53743 2.36749 7.0769 1.79939 7.0769C1.23129 7.0769 0.770752 7.53743 0.770752 8.10553C0.770752 8.67363 1.23129 9.13416 1.79939 9.13416Z" fill="white"/>
<path id='color' d="M1.79939 10.2557C2.36749 10.2557 2.82802 9.79521 2.82802 9.22712C2.82802 8.65902 2.36749 8.19849 1.79939 8.19849C1.23129 8.19849 0.770752 8.65902 0.770752 9.22712C0.770752 9.79521 1.23129 10.2557 1.79939 10.2557Z" fill="white"/>
<path id='color' d="M2.82802 8.10526H0.770752V9.22739H2.82802V8.10526Z" fill="white"/>
<path id='color' d="M16.1961 10.2557C16.7642 10.2557 17.2247 9.79521 17.2247 9.22712C17.2247 8.65902 16.7642 8.19849 16.1961 8.19849C15.628 8.19849 15.1675 8.65902 15.1675 9.22712C15.1675 9.79521 15.628 10.2557 16.1961 10.2557Z" fill="white"/>
<path id='color' d="M16.1961 9.13416C16.7642 9.13416 17.2247 8.67363 17.2247 8.10553C17.2247 7.53743 16.7642 7.0769 16.1961 7.0769C15.628 7.0769 15.1675 7.53743 15.1675 8.10553C15.1675 8.67363 15.628 9.13416 16.1961 9.13416Z" fill="white"/>
<path id='color'  d="M15.1675 9.22739H17.2247V8.10526H15.1675V9.22739Z" fill="white"/>
<path d="M5.35163 12.4997C5.91971 12.4997 6.38025 12.0392 6.38025 11.4711C6.38025 10.903 5.91971 10.4425 5.35163 10.4425C4.78353 10.4425 4.323 10.903 4.323 11.4711C4.323 12.0392 4.78353 12.4997 5.35163 12.4997Z" fill="white"/>
<path d="M5.35163 13.6216C5.91971 13.6216 6.38025 13.1611 6.38025 12.593C6.38025 12.0249 5.91971 11.5643 5.35163 11.5643C4.78353 11.5643 4.323 12.0249 4.323 12.593C4.323 13.1611 4.78353 13.6216 5.35163 13.6216Z" fill="white"/>
<path id='color'  d="M6.38025 11.4708H4.323V12.5929H6.38025V11.4708Z" fill="white"/>
<path id='color'  d="M5.35163 5.76839C5.91971 5.76839 6.38025 5.30786 6.38025 4.73978C6.38025 4.17168 5.91971 3.71115 5.35163 3.71115C4.78353 3.71115 4.323 4.17168 4.323 4.73978C4.323 5.30786 4.78353 5.76839 5.35163 5.76839Z" fill="white"/>
<path id='color'  d="M5.35163 9.41422C5.91971 9.41422 6.38025 8.95369 6.38025 8.38559C6.38025 7.81749 5.91971 7.35696 5.35163 7.35696C4.78353 7.35696 4.323 7.81749 4.323 8.38559C4.323 8.95369 4.78353 9.41422 5.35163 9.41422Z" fill="white"/>
<path id='color'  d="M6.37971 4.73944H4.323V8.40884H6.37971V4.73944Z" fill="white"/>
<path id='color'  d="M12.6436 6.89066C13.2117 6.89066 13.6722 6.43014 13.6722 5.86204C13.6722 5.29394 13.2117 4.8334 12.6436 4.8334C12.0755 4.8334 11.615 5.29394 11.615 5.86204C11.615 6.43014 12.0755 6.89066 12.6436 6.89066Z" fill="white"/>
<path id='color'  d="M12.6436 5.76839C13.2117 5.76839 13.6722 5.30786 13.6722 4.73978C13.6722 4.17168 13.2117 3.71115 12.6436 3.71115C12.0755 3.71115 11.615 4.17168 11.615 4.73978C11.615 5.30786 12.0755 5.76839 12.6436 5.76839Z" fill="white"/>
<path id='color'  d="M11.6147 5.86157H13.672V4.73944H11.6147V5.86157Z" fill="white"/>
<path id='color'  d="M8.99762 3.61844C9.56574 3.61844 10.0263 3.15791 10.0263 2.58982C10.0263 2.02172 9.56574 1.56119 8.99762 1.56119C8.42954 1.56119 7.96899 2.02172 7.96899 2.58982C7.96899 3.15791 8.42954 3.61844 8.99762 3.61844Z" fill="white"/>
<path id='color'  d="M8.99762 2.49653C9.56574 2.49653 10.0263 2.03599 10.0263 1.4679C10.0263 0.899803 9.56574 0.43927 8.99762 0.43927C8.42954 0.43927 7.96899 0.899803 7.96899 1.4679C7.96899 2.03599 8.42954 2.49653 8.99762 2.49653Z" fill="white"/>
<path id='color'  d="M7.96899 2.58976H10.0263V1.46762H7.96899V2.58976Z" fill="white"/>
<path d="M8.99762 16.8935C9.56574 16.8935 10.0263 16.4329 10.0263 15.8648C10.0263 15.2967 9.56574 14.8362 8.99762 14.8362C8.42954 14.8362 7.96899 15.2967 7.96899 15.8648C7.96899 16.4329 8.42954 16.8935 8.99762 16.8935Z" fill="white"/>
<path id='color'  d="M8.99762 15.7719C9.56574 15.7719 10.0263 15.3113 10.0263 14.7432C10.0263 14.1751 9.56574 13.7146 8.99762 13.7146C8.42954 13.7146 7.96899 14.1751 7.96899 14.7432C7.96899 15.3113 8.42954 15.7719 8.99762 15.7719Z" fill="white"/>
<path id='color'  d="M7.96899 15.8651H10.0263V14.7429H7.96899V15.8651Z" fill="white"/>
<path d="M12.6436 13.6216C13.2117 13.6216 13.6722 13.1611 13.6722 12.593C13.6722 12.0249 13.2117 11.5643 12.6436 11.5643C12.0755 11.5643 11.615 12.0249 11.615 12.593C11.615 13.1611 12.0755 13.6216 12.6436 13.6216Z" fill="white"/>
<path id='color'  d="M12.6436 9.97577C13.2117 9.97577 13.6722 9.51524 13.6722 8.94715C13.6722 8.37905 13.2117 7.91852 12.6436 7.91852C12.0755 7.91852 11.615 8.37905 11.615 8.94715C11.615 9.51524 12.0755 9.97577 12.6436 9.97577Z" fill="white"/>
<path id='color'  d="M11.6147 12.5925H13.6715V8.94641H11.6147V12.5925Z" fill="white"/>
<path id='color'  d="M8.99762 6.70349C9.56574 6.70349 10.0263 6.24291 10.0263 5.67486C10.0263 5.10676 9.56574 4.64621 8.99762 4.64621C8.42954 4.64621 7.96899 5.10676 7.96899 5.67486C7.96899 6.24291 8.42954 6.70349 8.99762 6.70349Z" fill="white"/>
<path id='color'  d="M8.99762 12.6868C9.56574 12.6868 10.0263 12.2263 10.0263 11.6582C10.0263 11.0901 9.56574 10.6295 8.99762 10.6295C8.42954 10.6295 7.96899 11.0901 7.96899 11.6582C7.96899 12.2263 8.42954 12.6868 8.99762 12.6868Z" fill="white"/>
</g>
<defs>
<clipPath id="clip0_314_220">
<rect width="16.4537" height="16.4537" fill="white" transform="translate(0.770508 0.439453)"/>
</clipPath>
</defs>
</svg>
