<svg width="17" height="17" viewBox="0 0 17 17" fill="none" xmlns="http://www.w3.org/2000/svg">
<g clip-path="url(#clip0_314_249)">
<path d="M8.30669 0.439362C6.67955 0.439362 5.08897 0.921851 3.73606 1.82581C2.3832 2.72981 1.32875 4.01468 0.706049 5.51791C0.0833901 7.02118 -0.0795252 8.67533 0.23793 10.2712C0.555338 11.867 1.33885 13.3329 2.48941 14.4834C3.63996 15.634 5.10587 16.4175 6.70171 16.7349C8.29755 17.0524 9.95169 16.8895 11.4549 16.2668C12.9582 15.6441 14.2431 14.5897 15.147 13.2368C16.051 11.8839 16.5335 10.2933 16.5335 8.6662C16.5335 6.48428 15.6667 4.39178 14.1239 2.84896C12.5811 1.3061 10.4886 0.439362 8.30669 0.439362ZM12.0819 12.3036C12.047 12.3617 12.0007 12.4123 11.946 12.4524C11.8913 12.4926 11.8291 12.5214 11.7631 12.5373C11.6971 12.5532 11.6287 12.5558 11.5617 12.5449C11.4946 12.5341 11.4305 12.5101 11.3728 12.4743C9.44256 11.2925 7.01323 11.0298 4.15058 11.6799C4.08544 11.6954 4.01791 11.6979 3.95182 11.687C3.88577 11.6763 3.82245 11.6525 3.76569 11.6171C3.70888 11.5817 3.65968 11.5353 3.62091 11.4807C3.58215 11.4261 3.55467 11.3644 3.53998 11.299C3.52433 11.2335 3.52184 11.1656 3.53251 11.099C3.54324 11.0325 3.56693 10.9688 3.6023 10.9114C3.63767 10.8541 3.68404 10.8043 3.73865 10.7649C3.7933 10.7255 3.85519 10.6973 3.92076 10.6819C7.05262 9.96618 9.74455 10.2748 11.9113 11.6011C12.0269 11.6717 12.1097 11.7854 12.1417 11.917C12.1737 12.0487 12.1522 12.1877 12.0819 12.3036ZM13.0865 10.0647C12.9948 10.2058 12.8523 10.3063 12.6886 10.3454C12.5248 10.3845 12.3523 10.3592 12.2067 10.2748C9.71028 8.8822 6.76316 8.53745 4.0127 9.31617C3.92712 9.36392 3.83193 9.39187 3.73415 9.398C3.63632 9.40413 3.5384 9.3883 3.44752 9.35165C3.35663 9.31501 3.27513 9.25853 3.20894 9.18625C3.14275 9.11403 3.09354 9.02785 3.06497 8.93415C3.0364 8.84039 3.02917 8.74147 3.04382 8.64458C3.05846 8.54768 3.0946 8.45533 3.14959 8.37422C3.20458 8.29311 3.27704 8.22538 3.36161 8.17589C3.44623 8.12646 3.5408 8.09653 3.63843 8.08841C5.17364 7.64648 6.78168 7.51579 8.3681 7.70412C9.95451 7.89241 11.4873 8.39585 12.8764 9.1849C13.0176 9.27663 13.118 9.4191 13.1571 9.58281C13.1962 9.74657 13.1709 9.91906 13.0865 10.0647ZM13.1719 7.73386C10.5456 6.15807 6.15314 6.01362 3.61876 6.78182C3.42373 6.84106 3.21315 6.82035 3.03338 6.72427C2.85362 6.62825 2.71937 6.46473 2.66017 6.26969C2.60097 6.0747 2.62165 5.86411 2.7177 5.68432C2.81371 5.50458 2.97724 5.37032 3.17227 5.31113C6.08092 4.43132 10.9067 4.60203 13.9598 6.40757C14.1167 6.51991 14.2256 6.6872 14.2649 6.8762C14.3041 7.06516 14.2707 7.26199 14.1714 7.42754C14.0721 7.59303 13.9141 7.71508 13.7289 7.76939C13.5437 7.82375 13.3448 7.80637 13.1719 7.72073V7.73386Z" fill="white"/>
</g>
<defs>
<clipPath id="clip0_314_249">
<rect width="16.4537" height="16.4537" fill="white" transform="translate(0.079834 0.439423)"/>
</clipPath>
</defs>
</svg>
