
<svg width="17" height="17" viewBox="0 0 17 17" fill="none" xmlns="http://www.w3.org/2000/svg">
    <path id="collor" fill-rule="evenodd" clip-rule="evenodd" d="M3.44539 3.68555C2.42705 3.736 1.60904 4.53337 1.54296 5.55081C1.47964 6.5256 1.41724 7.72503 1.41724 8.66615C1.41724 9.60727 1.47964 10.8067 1.54296 11.7815C1.60904 12.7989 2.42705 13.5963 3.44539 13.6468C4.92001 13.7198 7.02766 13.8079 8.61571 13.8079C10.2038 13.8079 12.3114 13.7198 13.786 13.6468C14.8044 13.5963 15.6224 12.7989 15.6885 11.7815C15.7518 10.8067 15.8142 9.60727 15.8142 8.66615C15.8142 7.72503 15.7518 6.5256 15.6885 5.55081C15.6224 4.53337 14.8044 3.736 13.786 3.68555C12.3114 3.6125 10.2038 3.52438 8.61571 3.52438C7.02766 3.52438 4.92001 3.6125 3.44539 3.68555ZM11.1869 8.66615L7.07348 10.7229V6.60944L11.1869 8.66615Z" fill="white"/>
</svg>