<svg width="146" height="95" viewBox="0 0 146 95" fill="none" xmlns="http://www.w3.org/2000/svg">
<path d="M120.911 48.9745C117.075 50.0304 113.849 51.006 110.582 51.7943C105.047 53.154 99.52 54.2505 93.7469 53.1911C87.8907 52.1106 83.9365 48.7735 82.4872 43.1271C81.6028 39.6589 81.6617 35.9595 81.4292 32.3627C81.3457 30.9558 81.6574 29.5024 81.8404 27.3971C79.5303 29.5201 77.7418 31.2161 75.8844 32.8355C71.3624 36.8119 66.9989 40.976 62.236 44.6257C55.7345 49.6597 49.4279 48.6117 44.5958 41.8964C42.7028 39.2618 41.4358 36.1381 39.9114 33.2142C39.4583 32.3322 39.1371 31.3954 38.678 30.3055C36.0561 35.3854 33.6361 40.2516 31.0436 44.9852C24.9851 56.0281 15.6245 53.1991 10.2181 46.3079C8.77186 44.4651 7.75004 42.2295 6.73473 40.0839C6.10416 38.626 6.31271 36.9989 7.93016 36.3206C9.38804 35.69 10.4919 36.679 11.2897 37.9436C12.0945 39.1806 12.8227 40.4866 13.7459 41.6063C14.8275 42.9139 15.9367 44.2285 17.255 45.3016C20.9682 48.312 24.0457 48.0355 26.8628 44.155C28.8571 41.4208 30.4579 38.3799 32.0723 35.4014C33.5749 32.6303 34.9531 29.7684 36.3314 26.9066C37.0588 25.4413 37.8416 23.99 39.6641 23.8946C41.757 23.7797 42.5737 25.4325 43.3356 26.9533C44.3173 28.884 45.0004 30.9448 46.0863 32.8136C47.4262 35.1893 48.8285 37.5515 50.5021 39.6586C52.782 42.5098 54.8585 42.9214 57.992 41.0378C60.9865 39.2366 63.9473 37.2205 66.6184 34.9537C72.3155 30.0683 77.8194 25.0157 83.3303 19.9355C84.6384 18.7361 85.9167 18.0008 87.5758 18.7776C89.1589 19.5055 89.339 20.9959 89.1723 22.5748C88.8681 25.3862 88.4391 28.2247 88.2804 31.0438C88.151 33.5165 88.0629 36.0588 88.384 38.499C89.2264 45.0224 92.4002 47.8362 98.9311 48.3518C103.841 48.749 108.673 48.1827 113.424 47.0064C116.851 46.1703 120.216 45.1122 123.587 44.1442C125.37 43.626 127.216 43.0943 128.586 44.8882C129.86 46.5985 129.117 48.3548 128.306 50.0345C127.949 50.7395 127.489 51.3886 127.056 52.0448C126.163 53.35 125.339 54.7318 124.322 55.9464C116.818 65.0287 118.056 74.3945 123.471 83.7937C124.474 85.5236 126.026 86.9511 127.377 88.4747C128.039 89.233 128.951 89.8192 129.508 90.6394C129.921 91.2164 130.276 92.2503 130.004 92.7409C129.717 93.2869 128.69 93.6147 128.038 93.7433C126.617 93.9999 124.943 93.3962 123.852 92.5874C121.698 90.9769 119.566 89.1656 117.989 87.0243C114.478 82.2967 112.606 76.8077 111.705 70.9768C110.938 66.0057 112.352 61.5021 114.969 57.3644C116.714 54.6844 118.652 52.1716 120.911 48.9745Z" fill="black"/>
</svg>
