<svg width="165" height="166" viewBox="0 0 165 166" fill="none" xmlns="http://www.w3.org/2000/svg">
<path d="M80.5801 81.983C80.9229 80.6119 81.1228 79.4978 81.4942 78.4123C85.2077 67.4432 91.1778 57.6739 97.9764 48.3901C98.7762 47.3046 99.776 46.2763 100.89 45.5907C101.49 45.2193 102.69 45.2765 103.375 45.6478C103.889 45.9335 104.261 47.0475 104.147 47.676C103.947 48.8757 103.518 50.104 102.918 51.1895C98.9762 58.3594 95.0056 65.5008 90.9779 72.6136C89.4639 75.2701 87.8643 77.8981 86.2932 80.5262C85.779 81.4117 85.2077 82.2686 84.6078 83.0685C83.9508 83.9826 82.951 84.5253 81.9512 83.9254C81.2942 83.5255 80.5801 83.2399 80.5801 81.983Z" fill="#CD4631"/>
<path d="M121.029 124.518C119.658 124.289 118.058 124.118 116.515 123.775C110.431 122.404 104.347 121.033 98.2907 119.605C96.9767 119.29 95.6913 118.748 94.5201 118.119C92.949 117.291 92.4063 116.12 92.6634 114.834C92.9204 113.549 93.9488 112.749 95.7484 112.72C96.9767 112.692 98.2907 112.72 99.4619 113.006C107.146 114.948 114.83 116.948 122.486 118.976C123.343 119.205 124.228 119.605 124.885 120.176C126.542 121.576 126.028 123.775 123.914 124.318C123.085 124.518 122.143 124.432 121.029 124.518Z" fill="#CD4631"/>
<path d="M40.7601 47.9337C40.8744 46.5911 41.16 45.2485 41.5028 43.9345C41.817 42.7633 42.6169 41.9349 43.9023 41.8207C44.9878 41.735 46.159 42.8205 46.3304 44.2487C46.5589 46.1626 46.7588 48.105 46.6731 50.0189C46.4161 55.7891 46.0447 61.5879 45.6448 67.3581C45.502 69.272 45.2449 71.1859 44.9307 73.0998C44.8164 73.7568 44.5879 74.4423 44.2165 74.9565C43.2167 76.4133 41.3885 76.2991 40.6744 74.728C40.2745 73.8425 40.1031 72.757 40.1031 71.7857C39.9603 68.5864 40.3888 52.6755 40.7601 47.9337Z" fill="#CD4631"/>
</svg>
