<svg width="73" height="73" viewBox="0 0 73 73" fill="none" xmlns="http://www.w3.org/2000/svg">
<path d="M62.5522 42.7775C59.7778 42.0652 55.1038 41.3028 53.3792 40.1281C52.6668 39.6407 52.7543 39.1033 52.8793 38.7284C53.0042 38.3784 53.7166 38.016 54.154 38.041C55.1413 38.0785 56.1286 38.291 57.0784 38.5534C59.1904 39.1283 61.29 39.7282 63.3645 40.4155C64.4643 40.7779 64.8142 41.6153 64.1769 42.1526C63.802 42.4651 63.452 42.7775 62.5522 42.7775Z" fill="#CD4631"/>
<path d="M18.811 62.086C18.936 61.4237 19.1859 61.0737 19.5484 60.5613C20.9606 58.5868 22.4352 56.6497 23.8849 54.7126C23.9724 54.6001 24.0724 54.4751 24.1849 54.3876C24.6848 53.9627 25.2471 53.4628 25.897 53.9252C26.5469 54.4001 26.3219 55.1 25.972 55.6624C24.5223 58.0244 23.0476 60.3739 21.5479 62.7109C21.323 63.0733 20.9356 63.3857 20.5481 63.5732C19.5858 64.0356 18.736 63.3982 18.811 62.086Z" fill="#CD4631"/>
<path d="M50.0419 61.649C50.0419 62.2113 49.6045 62.6113 49.2796 62.6737C48.8422 62.7612 48.4672 62.6862 47.8424 62.2613C47.6299 62.1239 47.5049 61.7864 47.38 61.524C46.4677 59.5494 45.5429 57.5873 44.6555 55.6002C44.4306 55.1128 44.2056 54.5505 44.2431 54.0381C44.2806 53.5757 44.5681 52.9133 44.943 52.7508C45.3054 52.5884 45.7928 52.5384 46.3677 53.1008C46.5801 53.3007 46.7801 53.6381 46.9176 53.9506C47.8174 56.0376 48.7172 58.1247 49.592 60.2243C49.7545 60.6242 49.8544 61.0616 50.0419 61.649Z" fill="#CD4631"/>
<path d="M10.3754 44.4275C9.80055 44.265 9.42563 43.99 9.33815 43.6151C9.22567 43.1402 9.46312 42.5029 9.73806 42.053C9.95052 41.7155 10.4379 41.5031 10.8503 41.3656C12.9124 40.6782 14.9869 40.0034 17.074 39.366C17.4239 39.2535 17.8738 39.2161 18.2113 39.3285C18.7611 39.516 18.9986 39.9534 18.5487 40.4783C18.2987 40.7782 18.0113 41.0907 17.6739 41.2531C15.7243 42.2279 13.7622 43.1652 11.7876 44.09C11.4252 44.2525 10.9378 44.6024 10.3754 44.4275Z" fill="#CD4631"/>
<path d="M52.7164 22.982C52.4415 22.8695 52.204 22.4196 52.1915 22.1197C52.179 21.7073 52.304 21.2074 52.554 20.87C53.7162 19.2703 54.9409 17.6956 56.1532 16.1335C56.3281 15.896 56.5656 15.7085 56.803 15.5211C57.3404 15.1087 58.0403 14.7462 58.5152 15.3711C58.7901 15.7335 58.8776 16.6583 58.6152 16.9708C57.0155 18.9204 55.2909 20.7825 53.5787 22.6446C53.4413 22.807 53.1663 23.0695 52.7164 22.982Z" fill="#CD4631"/>
<path d="M12.6503 20.2701C13.3501 20.4826 13.8875 20.6076 14.3999 20.795C15.8871 21.3324 17.3743 21.8823 18.849 22.4447C19.2614 22.6071 19.6988 22.7696 20.0362 23.0321C20.2737 23.2195 20.5361 23.6944 20.4486 23.8694C20.2987 24.1568 20.0737 24.5192 19.5613 24.4817C19.3489 24.4692 19.0739 24.4568 18.8365 24.3943C17.1618 23.9444 15.4872 23.5195 13.825 23.0196C13.2627 22.8571 12.6753 22.6196 12.2254 22.2572C11.9004 21.9948 11.6005 21.4074 11.688 21.0575C11.763 20.7325 12.0379 20.2701 12.6503 20.2701Z" fill="#CD4631"/>
<path d="M35.5203 15.0959C35.5078 15.2459 35.4953 15.3959 35.4454 15.5333C35.2329 16.1457 35.0954 16.8331 34.2331 16.7706C33.3208 16.7081 33.2833 15.9582 33.2958 15.3459C33.3333 13.8712 33.4708 12.3965 33.5832 10.9093C33.6332 10.3719 33.6957 9.82204 33.8457 9.30965C33.9957 8.78476 34.2081 8.24737 34.933 8.33486C35.6078 8.42234 35.8328 8.87224 35.8453 9.47212C35.8453 10.122 35.6453 13.8712 35.5203 15.0959Z" fill="#CD4631"/>

transform="translate(36.5,36.5)">
         
            <animateTransform
                attributeName="transform"
                attributeType="XML"
                type="rotate"
                from="0"
                to="360"
                dur="7s"
                repeatCount="indefinite" 
transform="scale(1.5)"/>
            <!-- Your paths here -->
        
        

    </svg>
