<svg width="37" height="35" viewBox="0 0 37 35" fill="none" xmlns="http://www.w3.org/2000/svg">
<path d="M20.8884 0.797042C21.6295 -0.529296 23.6571 0.155159 23.4427 1.65931L23.0478 4.43042C22.9192 5.33286 23.6907 6.10723 24.5936 5.98201L35.367 4.48797C36.8205 4.2864 37.5321 6.20078 36.2998 6.99753L28.2943 12.1738C27.3656 12.7742 27.4933 14.1706 28.5155 14.5926L33.9654 16.8426C35.2182 17.3598 35.041 19.1872 33.7122 19.4542L30.1454 20.1708C29.3396 20.3327 28.8563 21.1622 29.1128 21.943L30.1249 25.0238C30.5117 26.201 29.2623 27.2467 28.1716 26.6586L23.8224 24.3138C22.7064 23.7122 21.4417 24.8174 21.8885 26.0039L24.2807 32.3562C24.7996 33.7343 23.0774 34.8499 22.0319 33.8129L15.2699 27.106C14.8339 26.6736 14.1636 26.5837 13.6291 26.8861L6.00622 31.1987C4.73597 31.9174 3.37149 30.4177 4.20655 29.2208L8.69604 22.7859C9.1068 22.1971 8.99389 21.3912 8.43715 20.938L0.609769 14.5662C-0.390876 13.7516 0.185109 12.1317 1.47538 12.1317H7.50564C8.1873 12.1317 8.76545 11.6309 8.86274 10.9563L9.80813 4.40048C10.0126 2.98248 11.9808 2.7886 12.4581 4.13944L13.9898 8.47514C14.3828 9.5876 15.9041 9.71718 16.4796 8.68722L20.8884 0.797042Z" fill="#CD4631"/>
</svg>
