<svg width="87" height="77" viewBox="0 0 87 77" fill="none" xmlns="http://www.w3.org/2000/svg">
<path d="M34.3126 55.4551C31.3885 54.5611 26.1121 54.1845 22.0874 48.2847C18.1564 42.522 32.8879 53.3003 32.1464 59.3751C31.2797 66.4762 7.21098 46.4231 13.0146 47.5428C16.2615 48.1693 29.7873 62.9594 26.2085 64.8623C21.6558 67.283 4.53527 52.0513 5.51551 50.0166C7.24478 46.427 26.0352 66.9009 22.8937 70.1198C19.1476 73.958 5.74376 61.6458 5.96733 57.9026C6.14618 54.908 18.1819 69.9606 12.5718 75.8558" stroke="#81ADC8" stroke-width="0.762764" stroke-linecap="round"/>
<path d="M42.5933 7.1346C42.9467 6.13294 41.7263 0.641037 37.3022 2.07251" stroke="#F7EDE8" stroke-width="0.762764" stroke-linecap="round"/>
<path d="M45.8892 9.06903C45.5034 8.86735 44.0794 6.31476 46.0452 6.02979" stroke="#F7EDE8" stroke-width="0.762764" stroke-linecap="round"/>
<path d="M40.3533 7.81128C41.0145 7.91301 42.337 8.3301 42.337 9.18462" stroke="#F7EDE8" stroke-width="0.762764" stroke-linecap="round"/>
<path d="M68.8173 66.0669C69.1077 65.8938 69.4223 66.2512 69.2136 66.5173L68.9321 66.8762C68.8069 67.0358 68.8694 67.2708 69.0574 67.3472L71.0564 68.1591C71.3589 68.2819 71.2831 68.73 70.9569 68.7465L69.093 68.8404C68.8472 68.8528 68.7165 69.1361 68.8665 69.3312L69.556 70.2275C69.7398 70.4666 69.5024 70.799 69.2166 70.7026L68.5773 70.487C68.404 70.4285 68.2186 70.5346 68.1811 70.7136L68.0568 71.3079C68.0004 71.5778 67.6433 71.6403 67.4985 71.4057L67.0092 70.6125C66.8611 70.3723 66.4944 70.4446 66.4485 70.723L66.2406 71.9836C66.1873 72.3069 65.7313 72.3302 65.6452 72.0141L65.1499 70.1954C65.114 70.0635 64.9948 69.9716 64.8582 69.9705L63.1295 69.9553C62.8048 69.9525 62.7087 69.5117 63.0028 69.3739L64.393 68.7228C64.5377 68.655 64.6056 68.4872 64.5487 68.3379L63.8246 66.4369C63.7224 66.1686 64.0136 65.9205 64.2623 66.0641L65.291 66.658C65.4223 66.7339 65.5895 66.7017 65.6833 66.5825L66.4798 65.5705C66.677 65.32 67.0778 65.5017 67.0195 65.8151L66.8659 66.6405C66.8178 66.8986 67.0966 67.0929 67.3221 66.9584L68.8173 66.0669Z" fill="#CD4631"/>
<path d="M68.3148 58.7942C67.8728 58.5315 68.1331 57.852 68.6375 57.9519L71.1823 58.4557C71.7516 58.5684 72.2332 58.0293 72.0573 57.4762L70.9682 54.0528C70.8183 53.5816 71.4186 53.2404 71.7467 53.6104L73.4839 55.5692C73.8266 55.9557 74.4463 55.8969 74.7103 55.4528L76.4958 52.4488C76.7267 52.0602 77.3214 52.2062 77.3461 52.6576L77.5532 56.4317C77.5808 56.9349 78.0802 57.2735 78.5578 57.1129L80.3525 56.5097C80.8251 56.3508 81.175 56.9551 80.8019 57.2859L78.9329 58.9435C78.5465 59.2862 78.6053 59.9059 79.0493 60.1698L80.8546 61.2429C81.2933 61.5036 81.0404 62.1783 80.5384 62.0864L77.2743 61.4892C76.6809 61.3806 76.2022 61.9713 76.4314 62.5293L77.3633 64.798C77.5637 65.286 76.9155 65.6699 76.5839 65.2595L74.4346 62.5992C74.039 62.1095 73.2539 62.2829 73.1013 62.8936L72.8578 63.8677C72.7252 64.3985 71.9416 64.2913 71.9563 63.7445L71.9776 62.9528C71.9926 62.3964 71.4257 62.0118 70.9142 62.2314L69.309 62.9206C68.8315 63.1256 68.436 62.5024 68.8248 62.1576L70.1096 61.0182C70.4961 60.6755 70.4373 60.0558 69.9932 59.7919L68.3148 58.7942Z" fill="black" stroke="black" stroke-width="0.305106"/>
</svg>
