<svg width="124" height="210" viewBox="0 0 124 210" fill="none" xmlns="http://www.w3.org/2000/svg">
<path d="M55.3195 43.3157C56.1162 39.545 56.0013 32.8788 62.96 27.1689C69.757 21.5918 57.866 41.2871 50.1567 41.0328C41.1451 40.7355 63.6403 8.28484 62.8809 15.6958C62.456 19.8419 45.3941 38.4703 42.6065 34.1891C39.0603 28.743 56.2762 5.55245 58.9399 6.55648C63.6391 8.32772 40.0278 34.1986 35.6368 30.613C30.4008 26.3374 44.3654 8.13826 49.0898 8.00202C52.8692 7.89304 35.3119 24.6799 27.2859 18.2932" stroke="#F7EDE8" stroke-width="1.71392" stroke-linecap="round"/>
<path d="M36.9603 148.491C34.9334 147.286 36.1272 144.17 38.4402 144.628L50.1097 146.939C52.7204 147.456 54.929 144.983 54.1222 142.447L49.1278 126.748C48.4404 124.587 51.1933 123.023 52.6979 124.719L60.6642 133.702C62.2359 135.474 65.0776 135.205 66.2878 133.168L74.4755 119.393C75.5348 117.611 78.2616 118.28 78.3751 120.35L79.3247 137.657C79.4513 139.965 81.7411 141.517 83.9317 140.781L92.1612 138.015C94.3285 137.286 95.933 140.057 94.2224 141.574L85.6516 149.175C83.8794 150.747 84.1491 153.589 86.1853 154.799L94.4637 159.72C96.4757 160.916 95.3161 164.009 93.0137 163.588L78.0456 160.849C75.3244 160.351 73.1295 163.06 74.1805 165.619L78.4536 176.022C79.3729 178.26 76.4005 180.02 74.8799 178.138L65.0238 165.94C63.2095 163.694 59.6096 164.489 58.9096 167.29L57.7931 171.757C57.1848 174.19 53.5917 173.699 53.6592 171.191L53.7568 167.561C53.8255 165.009 51.2261 163.246 48.8804 164.253L41.5196 167.413C39.3299 168.353 37.5163 165.496 39.2991 163.915L45.1908 158.689C46.963 157.118 46.6933 154.276 44.6571 153.066L36.9603 148.491Z" fill="black" stroke="black" stroke-width="1.39912"/>
<path d="M14.9746 84.1112C15.4646 81.7753 11.117 69.9052 1.68799 74.4061" stroke="#81ADC8" stroke-width="1.71392" stroke-linecap="round"/>
<path d="M20.9932 80.4631C21.3649 79.5586 20.1222 73.1112 16.3306 75.4636" stroke="#81ADC8" stroke-width="1.71392" stroke-linecap="round"/>
<path d="M10.1863 86.2824C11.6888 86.3128 14.7573 86.8493 15.0108 88.7521" stroke="#81ADC8" stroke-width="1.71392" stroke-linecap="round"/>
<path d="M106.483 19.4883C108.882 17.4316 117.335 18.1891 119.852 21.545C122.937 25.6584 121.223 31.143 122.594 32.5141" stroke="#CD4631" stroke-width="1.71392" stroke-linecap="round"/>
<path d="M112.056 12.2001C112.872 11.2193 116.439 10.6479 117.773 11.6057C119.408 12.7796 119.175 14.9269 119.862 15.284" stroke="#CD4631" stroke-width="1.71392" stroke-linecap="round"/>
</svg>
