<svg width="244" height="175" viewBox="0 0 244 175" fill="none" xmlns="http://www.w3.org/2000/svg">
<circle cx="186.351" cy="92.5697" r="2.05671" transform="rotate(30 186.351 92.5697)" fill="#81ADC8"/>
<circle cx="191.101" cy="95.312" r="2.74228" transform="rotate(30 191.101 95.312)" fill="#81ADC8"/>
<path d="M183.014 96.9767L184.014 96.9599C184.629 96.9495 185.199 97.279 185.498 97.8168V97.8168C185.796 98.3546 186.367 98.6841 186.982 98.6738V98.6738C187.597 98.6634 188.168 98.9929 188.467 99.5307L188.952 100.405" stroke="black" stroke-width="1.71392" stroke-linecap="round" stroke-linejoin="round"/>
<path d="M-2.64003 -31.0487C6.2418 -30.7974 13.7025 -28.6607 20.0975 -23.6331C29.5714 -16.3432 34.3084 -6.41381 33.7162 6.15503C33.4794 10.9312 31.5846 15.0789 28.624 18.5982C23.5318 24.7569 16.9 27.7734 9.20241 28.7789C8.49186 28.9046 7.89974 28.9046 7.18919 28.7789C-0.50839 27.3964 -8.08755 25.8881 -14.9562 21.7404C-23.838 16.0844 -28.4565 7.66329 -28.3381 -3.39729C-28.1013 -16.0918 -18.7457 -28.0322 -7.377 -30.546C-5.48221 -30.9231 -3.58742 -30.923 -2.64003 -31.0487ZM-1.81106 -17.3487C-3.469 -16.9716 -5.24536 -16.846 -6.78488 -16.2175C-14.0088 -13.0753 -17.3246 -2.89454 -13.4166 4.2697C-12.114 6.78347 -10.1008 8.66879 -7.73227 9.92567C-3.23215 12.3138 1.62325 13.822 6.59707 14.3248C8.96556 14.5761 11.5709 14.0734 13.821 13.0679C19.2685 10.8055 21.5185 6.4064 20.3343 0.624733C19.2685 -4.65418 16.7816 -9.17896 12.5183 -12.3212C8.37344 -15.3377 3.51804 -16.846 -1.81106 -17.3487Z" fill="#CD4631"/>
<path d="M9.44482 -61.2139C14.3002 -60.7112 19.274 -60.5855 24.1294 -59.8314C35.3798 -57.946 44.4984 -51.7873 51.3671 -42.235C60.3673 -29.9175 65.2227 -15.8404 65.6964 -0.129368C65.9332 5.90367 64.749 11.6853 62.4988 17.2156C60.3672 22.3689 57.762 27.2707 54.3277 31.6698C42.8405 46.2495 28.8664 56.556 10.7475 59.1954C-1.45023 60.9551 -13.5295 60.2009 -25.0167 55.6762C-32.9511 52.4083 -40.1751 47.7578 -46.57 41.8504C-48.7016 39.8394 -50.478 37.2001 -52.0175 34.5606C-56.1623 27.145 -58.6493 18.9753 -60.8993 10.8055C-61.6098 8.29176 -61.4914 5.40092 -61.4914 2.76147C-61.4914 -14.0808 -55.8071 -28.4093 -43.9646 -39.8469C-30.4642 -52.7928 -14.7138 -60.2084 3.76045 -60.8369C5.65512 -60.8369 7.55003 -60.8369 9.44482 -60.8369C9.44482 -60.9626 9.44482 -61.0882 9.44482 -61.2139ZM9.20797 -47.1368C-6.30562 -47.6396 -20.0429 -42.4864 -32.1221 -32.3056C-37.096 -28.0322 -41.3593 -23.1303 -44.2015 -16.8459C-50.7148 -2.39176 -49.4121 11.5596 -41.833 25.134C-40.6487 27.2706 -38.8724 29.0303 -36.9776 30.5386C-33.8985 33.0524 -30.701 35.3148 -27.3852 37.4515C-18.5033 43.233 -9.02938 46.5009 1.62881 45.9981C22.2345 44.9926 37.2745 34.5606 48.0512 16.5872C49.3538 14.4505 50.3012 12.1881 51.0118 9.80002C51.8406 7.16056 52.4329 4.26973 52.5513 1.63027C52.5513 -12.0698 48.288 -24.2615 40.2352 -34.6937C35.0245 -41.3552 28.2743 -45.3772 19.9846 -46.257C16.4319 -46.7598 12.7607 -46.8855 9.20797 -47.1368Z" fill="#81ADC8"/>
<path d="M-8.20827 88.4808C-18.0375 88.4808 -26.2088 87.0982 -34.0248 83.7047C-39.1171 81.4423 -43.7356 78.3001 -47.762 74.1523C-53.2096 68.4964 -58.8939 62.8404 -64.4598 57.3101C-64.9335 56.8073 -65.5257 56.4303 -65.9993 55.9275C-67.8941 54.0422 -70.1442 52.2826 -71.6837 50.0202C-79.6181 38.5825 -85.6578 26.1394 -87.1973 11.6852C-88.5 -0.506561 -86.6052 -12.1956 -82.2235 -23.3818C-78.7892 -32.3057 -74.4075 -40.6012 -68.6047 -47.8911C-62.6835 -55.3067 -55.9333 -61.3397 -47.8805 -65.9902C-38.2881 -71.2691 -28.5773 -76.2966 -18.3928 -80.3187C-3.82657 -85.9746 11.3317 -88.237 26.8453 -87.6086C32.5297 -87.3572 37.9772 -85.9746 42.951 -83.0838C48.8723 -79.6902 54.7935 -76.1709 60.241 -72.1489C71.7277 -63.8535 78.7147 -51.7874 83.2149 -38.2131C89.6098 -18.8571 90.3203 1.00169 85.2281 20.8605C84.1622 25.0082 82.7412 29.1559 80.9648 32.9266C72.6751 50.2715 60.9516 64.2229 44.3721 73.2725C27.319 82.5735 9.43697 87.601 -8.20827 88.4808ZM-8.44512 74.5294C7.77901 73.5239 24.0032 68.8734 39.2799 60.4523C51.7144 53.5394 60.5963 42.9816 67.4649 30.2871C69.4781 26.5164 71.254 22.3687 72.3198 18.0953C76.9384 0.247574 76.3462 -17.6002 70.1886 -34.9452C66.5175 -45.2516 61.1884 -54.4269 52.3066 -60.837C47.5696 -64.2306 42.4773 -67.2471 37.3851 -70.2636C33.4771 -72.526 29.2138 -73.5315 24.8321 -73.6572C11.2133 -73.9086 -2.16862 -71.8976 -14.9585 -66.7443C-23.9587 -63.0994 -32.7221 -58.5746 -41.2487 -53.7984C-47.8805 -50.0278 -53.4464 -45.1259 -58.3018 -39.0929C-63.1572 -33.0599 -66.7099 -26.2727 -69.6705 -18.9827C-74.1706 -7.92217 -75.7101 3.38978 -73.3417 15.2045C-72.2758 20.4834 -70.8547 25.3852 -66.8283 29.2816C-64.9335 31.1669 -63.5124 33.6807 -62.0913 35.9431C-60.7887 37.9541 -59.6044 39.9651 -58.5387 42.1018C-56.7623 45.3697 -54.5122 48.1348 -51.9069 50.6486C-47.762 54.6706 -43.4988 58.8184 -39.5908 63.0918C-35.4459 67.4909 -30.5905 70.3817 -25.1429 72.1413C-19.9323 73.901 -14.7216 74.5294 -8.44512 74.5294Z" fill="#F7EDE8"/>
<path d="M98.1875 80.2541C99.1018 81.2827 100.382 83.34 98.1875 83.34" stroke="#F7EDE8" stroke-width="1.71392" stroke-linecap="round" stroke-linejoin="round"/>
<path d="M104.358 89.8521C102.806 88.0239 100.633 84.3675 104.358 84.3675" stroke="#F7EDE8" stroke-width="1.71392" stroke-linecap="round" stroke-linejoin="round"/>
<path d="M96.1309 86.3359C97.6759 86.4621 100.34 87.1402 98.6377 88.8428" stroke="#F7EDE8" stroke-width="1.71392" stroke-linecap="round" stroke-linejoin="round"/>
<path d="M106.76 79.2687C107.993 79.2141 110.033 78.6466 112.423 80.3435C114.758 82.001 107.616 79.8945 106.992 77.4894C106.264 74.6779 118.296 79.0467 115.946 79.4033C114.632 79.6027 107.347 75.8115 108.411 74.6075C109.764 73.0758 118.467 76.5505 118.4 77.4547C118.283 79.0497 108.174 73.8105 108.877 72.166C109.716 70.205 116.587 73.0723 117.059 74.5229C117.436 75.6834 110.673 71.5919 111.908 68.5994" stroke="#81ADC8" stroke-width="0.685569" stroke-linecap="round"/>
<path d="M220.87 112.819C220.723 112.512 221.117 112.235 221.357 112.476L223.833 114.968C223.996 115.132 224.275 115.06 224.338 114.838L225.449 110.917C225.538 110.602 225.993 110.633 226.039 110.956L226.499 114.2C226.528 114.401 226.743 114.517 226.927 114.431L230.251 112.869C230.519 112.743 230.79 113.039 230.64 113.295L228.665 116.654C228.564 116.824 228.653 117.044 228.843 117.098L231.458 117.835C231.775 117.924 231.741 118.383 231.414 118.425L228.266 118.827C228.062 118.853 227.943 119.071 228.032 119.257L229.329 121.965C229.475 122.27 229.087 122.548 228.845 122.311L225.928 119.458C225.757 119.29 225.467 119.38 225.421 119.616L224.728 123.14C224.661 123.482 224.164 123.457 224.131 123.11L223.708 118.686C223.684 118.439 223.389 118.324 223.205 118.491L221.049 120.44C220.782 120.682 220.392 120.337 220.6 120.042L222.134 117.866C222.26 117.687 222.16 117.438 221.946 117.396L219.113 116.84C218.777 116.774 218.793 116.287 219.133 116.244L221.901 115.891C222.105 115.865 222.224 115.646 222.135 115.46L220.87 112.819Z" fill="#CD4631"/>
<path d="M190.821 123.937L236.322 118.646" stroke="black" stroke-width="1.02835" stroke-linecap="round"/>
<path d="M181.872 122.834L227.373 117.543" stroke="#CD4631" stroke-width="1.02835" stroke-linecap="round"/>
<path d="M231.707 118.357C231.416 118.184 231.588 117.737 231.92 117.803L233.596 118.134C233.97 118.209 234.288 117.854 234.172 117.489L233.455 115.235C233.356 114.925 233.751 114.7 233.967 114.944L235.111 116.234C235.337 116.488 235.745 116.449 235.919 116.157L237.095 114.179C237.247 113.923 237.638 114.019 237.655 114.316L237.791 116.802C237.809 117.133 238.138 117.356 238.452 117.25L239.634 116.853C239.946 116.748 240.176 117.146 239.93 117.364L238.699 118.456C238.445 118.681 238.484 119.089 238.776 119.263L239.965 119.97C240.254 120.142 240.087 120.586 239.757 120.525L237.607 120.132C237.216 120.061 236.901 120.449 237.052 120.817L237.666 122.311C237.798 122.632 237.371 122.885 237.153 122.615L235.737 120.863C235.477 120.541 234.96 120.655 234.859 121.057L234.699 121.698C234.612 122.048 234.096 121.977 234.105 121.617L234.119 121.096C234.129 120.729 233.756 120.476 233.419 120.621L232.362 121.075C232.048 121.21 231.787 120.799 232.043 120.572L232.889 119.822C233.144 119.596 233.105 119.188 232.813 119.014L231.707 118.357Z" fill="black" stroke="black" stroke-width="0.200918"/>
<path d="M36.6805 107.482C37.5739 106.773 38.671 106.25 39.7523 106.31C40.4905 106.351 40.8516 108.011 41.088 108.543C41.4163 109.282 40.9682 109.769 40.3524 110.202C40.1922 110.465 40.0419 110.768 39.924 111.033C39.8607 111.175 39.7668 111.282 39.6588 111.371C39.842 111.889 40.2675 112.519 40.2675 112.836C40.2675 113.498 40.1663 113.696 39.5042 113.275C39.2766 113.13 38.9587 113.018 38.7411 112.828C38.6604 112.758 38.5936 112.676 38.5501 112.579C38.0699 111.498 39.2224 110.952 40.1557 110.336C40.3304 110.167 40.4672 109.975 40.567 109.771C40.5112 109.538 40.2818 109.016 40.2675 108.886C40.1628 107.944 38.8677 108.199 38.2067 108.199C37.2652 108.199 36.9031 109.004 36.3939 109.659C35.9721 110.201 35.1155 110.499 35.1155 109.487C35.1155 108.377 35.8018 107.788 36.6805 107.482Z" fill="#CD4631"/>
<path d="M35.4589 108.715C36.4 107.495 38.0948 106.218 39.7523 106.31C40.4905 106.351 40.8516 108.011 41.088 108.543C41.9262 110.429 37.704 110.675 38.5501 112.579C38.7107 112.94 39.1922 113.077 39.5042 113.275C40.1663 113.696 40.2675 113.498 40.2675 112.836C40.2675 112.324 39.1561 110.993 39.7523 110.642C41.3701 109.69 41.0215 107.169 38.9795 107.169C37.4101 107.169 35.1155 107.457 35.1155 109.487C35.1155 110.499 35.9721 110.201 36.3939 109.659C36.9031 109.004 37.2652 108.199 38.2067 108.199C38.8677 108.199 40.1628 107.944 40.2675 108.886C40.2852 109.046 40.6304 109.805 40.5728 109.879C40.334 110.186 40.0949 110.648 39.924 111.033C39.6375 111.678 38.7219 111.593 38.7219 112.407C38.7219 112.951 38.7513 113.045 39.0653 113.437C39.1692 113.567 39.776 113.914 39.5805 113.523" stroke="#CD4631" stroke-width="1.0304" stroke-linecap="round" stroke-linejoin="round"/>
<path d="M40.7825 115.927C40.8182 117.356 41.5177 116.481 40.9924 116.061C40.6445 115.783 40.5473 116.544 40.9542 116.748C41.4114 116.976 41.3057 115.824 41.1641 115.966C40.7958 116.334 41.5777 117.328 40.7825 117.13" stroke="#CD4631" stroke-width="1.0304" stroke-linecap="round" stroke-linejoin="round"/>
<path d="M46.1366 102.715C46.2127 102.715 46.2886 102.714 46.3642 102.71C47.2425 102.121 48.415 101.773 48.8695 100.605C48.9924 100.289 49.216 99.6523 49.0905 99.2194C49.0452 99.0632 48.9545 98.9336 48.7974 98.855C48.2993 98.6059 47.0608 98.3007 46.6147 98.7468C45.7809 99.5805 44.9536 100.271 43.7645 100.569C42.6517 100.847 42.4188 99.5747 42.8806 98.8189C43.6522 97.5563 44.3518 96.6802 45.8751 96.7084C47.0371 96.7299 49.1644 96.7746 49.9248 97.7727C50.8247 98.9538 50.6581 100.576 49.8076 101.741C49.4013 102.298 48.7671 102.657 48.1231 102.937C48.0193 103.011 47.9183 103.074 47.8233 103.121C47.5689 103.248 47.1803 103.337 46.8675 103.501C46.3338 103.94 46.5245 104.664 46.5245 105.475C46.5245 105.878 46.5081 106.393 46.4439 106.918C46.4222 107.268 46.3687 107.599 46.2613 107.884C46.1399 108.329 45.9645 108.732 45.7127 109.02C45.5079 109.254 45.3654 109.044 45.2694 108.734C44.8897 108.644 45.0633 107.732 45.0633 107.414C45.0633 106.421 45.0257 105.44 45.2352 104.479C45.2643 103.749 45.402 102.715 46.1366 102.715Z" fill="#CD4631"/>
<path d="M44.0892 98.9813C43.8509 97.6193 45.3561 97.4687 46.4343 97.1954C47.2901 96.9785 48.1052 96.798 48.9236 97.2676C49.4562 97.5731 50.2049 98.3561 50.2495 98.9813C50.4157 101.307 48.3771 102.715 46.1366 102.715C45.1983 102.715 45.2338 104.402 45.2257 104.988C45.2125 105.935 44.9896 106.851 45.0994 107.802C45.1296 108.064 45.2851 109.509 45.7127 109.02C46.421 108.21 46.5245 106.489 46.5245 105.475C46.5245 104.51 46.2547 103.668 47.255 103.284C48.14 102.943 49.2158 102.552 49.8076 101.741C50.6581 100.576 50.8247 98.9538 49.9248 97.7727C49.1644 96.7746 47.0371 96.7299 45.8751 96.7084C44.3518 96.6802 43.6522 97.5563 42.8806 98.8189C42.4188 99.5747 42.6517 100.847 43.7645 100.569C44.9536 100.271 45.7809 99.5805 46.6147 98.7468C47.0608 98.3007 48.2993 98.6059 48.7974 98.855C49.3903 99.1515 49.0367 100.175 48.8695 100.605C48.2007 102.325 45.9771 102.267 45.4241 103.816C45.0063 104.985 45.0633 106.191 45.0633 107.414C45.0633 107.792 44.8176 109.012 45.5504 108.686C46.9477 108.065 46.2928 105.425 46.3621 104.176C46.4018 103.461 47.3475 103.359 47.8233 103.121C48.3989 102.833 49.1962 101.99 49.4829 101.417C49.8718 100.639 49.943 99.4525 49.3656 98.7468C48.6459 97.8672 47.4233 98.4059 46.6868 97.8448C46.0472 97.3575 44.7029 99.017 44.2516 99.4683C44.0741 99.6458 43.8757 99.8015 43.6833 99.9554C43.596 100.025 43.3412 100.533 43.2775 100.533C43.0772 100.533 43.513 100.2 43.6743 100.082C44.2182 99.6817 44.7288 99.2253 45.1265 98.6746C45.5693 98.0615 46.2868 98.3319 47.0115 98.3319C47.4278 98.3319 48.3681 98.1513 48.7162 98.4221C49.2437 98.8323 49.4358 99.2014 48.635 99.4683" stroke="#CD4631" stroke-width="0.974102" stroke-linecap="round" stroke-linejoin="round"/>
<path d="M46.3061 112.376C46.3201 112.369 46.3336 112.36 46.3466 112.351C46.2532 112.277 45.939 112.097 45.8842 111.969C45.6712 111.472 46.3391 111.304 46.4885 111.771C46.5804 112.058 46.5038 112.243 46.3466 112.351C46.3868 112.383 46.3861 112.396 46.3061 112.376Z" fill="#CD4631"/>
<path d="M45.8752 111.645C43.5075 112.177 46.9286 113.146 46.4885 111.771C46.3391 111.304 45.6712 111.472 45.8842 111.969C45.978 112.188 46.8318 112.559 46.0375 112.294" stroke="#CD4631" stroke-width="0.974102" stroke-linecap="round" stroke-linejoin="round"/>
<path d="M99.1423 150.019C97.6937 148.686 95.6818 149.501 94.5882 150.906C93.5234 152.273 93.2293 155.314 94.6237 156.572C95.0116 156.921 95.3684 157.322 95.8053 157.61C95.9612 157.713 95.4787 157.796 95.301 157.853C94.7507 158.029 94.5727 158.683 94.8126 159.182C94.9384 159.443 95.1952 159.595 95.4778 159.612C95.6728 159.624 95.7248 159.684 95.5122 159.741C95.0136 159.874 94.6574 159.96 94.3794 160.442C93.9691 161.152 94.2894 161.656 94.9641 161.964C95.646 162.276 95.5623 162.476 95.0468 162.914C94.6382 163.261 94.5588 163.843 94.4834 164.366C94.353 165.271 94.1789 166.632 95.0556 167.197C96.1531 167.906 97.5898 167.705 98.7426 167.29C99.1257 167.152 99.5904 167.041 99.852 166.703C99.9226 166.611 100.103 166.296 99.8576 166.284C99.4197 166.263 99.3903 167.045 99.4113 167.312C99.5601 169.199 102.447 169.379 103.752 168.927C104.6 168.634 105.294 168.089 105.889 167.432C106.358 166.915 107.039 166.315 107.296 165.646C107.42 165.323 107.413 165.677 107.559 165.929C107.906 166.532 108.583 166.294 109.084 166.05C109.759 165.721 110.322 165.16 110.651 164.482C110.7 164.382 110.921 163.741 110.988 163.812C111.801 164.688 111.965 163.242 112.469 162.816C112.553 162.745 112.832 163.352 112.902 163.446C113.438 164.162 113.978 164.796 114.935 164.875C116.983 165.045 118.907 163.875 120.036 162.237C120.511 161.547 120.693 160.671 119.859 160.129C119.657 159.998 120.241 160.093 120.343 160.068C120.905 159.934 121.717 159.728 122.059 159.216C122.448 158.632 122.629 158.142 122.326 157.465C122.114 156.992 121.78 156.744 121.279 156.636C121.059 156.588 120.64 156.641 120.912 156.401C121.184 156.159 121.246 155.653 121.218 155.307C121.173 154.763 120.743 154.457 120.236 154.353C120.007 154.306 119.358 154.5 119.467 154.471C119.83 154.373 119.796 152.896 119.723 152.625C119.4 151.419 118.014 150.665 116.78 150.949C116.576 150.996 116.384 151.153 116.506 150.914C116.646 150.64 116.583 150.2 116.609 149.905C116.753 148.244 115.877 147.005 114.464 146.189C113.301 145.517 111.646 145.314 110.507 146.096C110.433 146.146 110.013 146.832 110.168 146.79C110.403 146.727 110.232 146.167 110.179 146.046C109.93 145.48 109.154 145.104 108.603 144.927C107.791 144.666 106.73 144.975 105.979 145.32C105.317 145.625 104.868 146.162 104.61 146.826C104.473 147.178 104.678 147.42 104.408 147.244C103.97 146.958 103.793 146.752 103.205 146.898C102.514 147.07 101.904 147.359 101.418 147.888C101.17 148.158 100.994 148.687 101.093 149.055C101.095 149.06 100.957 148.713 100.878 148.582C100.454 147.876 99.4558 148.066 99.0105 148.685C98.823 148.946 98.7506 149.308 98.7768 149.626C98.7904 149.793 98.784 150.331 98.6638 149.882" stroke="#81ADC8" stroke-width="1.02835" stroke-linecap="round" stroke-linejoin="round"/>
<path d="M113.005 169.697C112.424 169.382 112.101 169.476 111.674 169.988C111.276 170.466 111.23 171.262 111.702 171.709C112.433 172.403 113.83 171.984 114.193 171.11C114.37 170.686 114.34 171.003 114.505 171.104C114.917 171.357 115.111 171.355 115.439 170.952C115.834 170.468 115.978 168.701 114.897 169.071C114.777 169.112 114.417 169.437 114.598 169.375C114.838 169.293 114.794 168.99 114.708 168.806C114.479 168.317 113.732 168.16 113.307 168.408C112.989 168.593 112.957 169.017 112.707 169.208C112.465 169.392 111.543 170.409 112.333 170.21" stroke="#81ADC8" stroke-width="1.02835" stroke-linecap="round" stroke-linejoin="round"/>
<path d="M117.713 172.631C117.299 172.55 116.812 172.429 116.707 172.991C116.629 173.409 117.056 173.934 117.499 173.864C117.654 173.84 118.162 173.602 118.263 173.703C118.516 173.955 118.668 173.664 118.823 173.418C119.004 173.131 118.73 172.207 118.353 172.123C118.114 172.07 117.17 172.744 117.286 172.802" stroke="#81ADC8" stroke-width="1.02835" stroke-linecap="round" stroke-linejoin="round"/>
<path d="M104.644 153.848C103.146 151.253 94.2253 158.941 108.639 160.768" stroke="#CD4631" stroke-width="0.514177" stroke-linecap="round"/>
<path d="M108.639 160.768C114.264 147.372 103.146 151.254 104.644 153.848L106.428 154.327L105.95 156.111L107.355 156.487L106.979 157.892L107.681 158.08L107.493 158.782L108.639 160.768ZM108.639 160.768C108.639 160.768 108.639 160.768 108.639 160.768Z" stroke="#CD4631" stroke-width="0.514177" stroke-linecap="round" stroke-linejoin="round"/>
<path d="M101.857 156.031C101.957 155.795 102.151 155.621 102.273 155.399C102.42 155.132 102.643 154.938 102.837 154.712C102.89 154.65 103.194 154.315 103.08 154.576C102.896 154.995 102.7 155.408 102.522 155.83C102.428 156.053 102.345 156.309 102.188 156.495C102.089 156.613 102.253 156.351 102.269 156.329C102.463 156.082 102.755 155.84 103.002 155.648C103.27 155.441 103.507 155.18 103.699 154.902C103.725 154.864 103.891 154.658 103.787 154.815C103.527 155.211 103.26 155.61 103.036 156.027C102.929 156.225 102.807 156.418 102.678 156.602C102.612 156.697 102.554 156.854 102.454 156.919C102.446 156.923 102.344 157.039 102.378 156.985C102.548 156.721 102.89 156.507 103.119 156.294C103.399 156.034 103.717 155.789 103.953 155.486C104.107 155.288 104.271 155.1 104.443 154.918C104.691 154.658 104.087 155.544 103.905 155.854C103.685 156.231 103.465 156.606 103.249 156.985C103.146 157.166 103.019 157.332 102.918 157.508C102.87 157.593 102.859 157.629 102.944 157.53C103.23 157.199 103.487 156.845 103.776 156.515C103.919 156.353 104.062 156.192 104.229 156.057C104.283 156.014 104.43 155.844 104.329 156.046C104.085 156.533 103.751 157.01 103.448 157.464C103.378 157.569 103.371 157.609 103.456 157.466C103.585 157.248 103.8 157.026 103.994 156.86C104.169 156.709 104.336 156.554 104.487 156.377C104.729 156.095 104.51 156.454 104.432 156.595C104.173 157.059 103.917 157.518 103.719 158.013C103.711 158.033 103.556 158.452 103.586 158.457C103.636 158.465 103.789 158.212 103.813 158.179C103.937 158.012 104.072 157.858 104.213 157.704C104.427 157.469 104.688 157.185 104.823 156.891C104.877 156.773 104.911 156.646 104.966 156.528C105.025 156.403 104.898 156.797 104.848 156.926C104.731 157.235 104.67 157.554 104.59 157.873C104.55 158.035 104.51 158.082 104.583 157.888C104.682 157.625 104.805 157.37 104.92 157.114C105.033 156.861 104.975 157.103 104.935 157.247C104.919 157.304 104.65 157.983 104.677 157.997C104.679 157.998 104.744 157.849 104.749 157.84C104.783 157.774 104.84 157.723 104.872 157.658C105.013 157.375 104.68 158.905 104.741 158.595C104.784 158.38 104.971 158.215 105.073 158.035C105.121 157.95 105.106 157.973 105.106 158.068C105.106 158.263 105.08 158.451 105.073 158.643C105.068 158.775 105.215 158.421 105.298 158.319C105.357 158.247 105.427 158.108 105.511 158.061C105.546 158.042 105.496 158.511 105.489 158.551C105.481 158.601 105.466 158.943 105.493 158.908C105.559 158.825 105.639 158.747 105.703 158.667C105.744 158.616 105.736 158.869 105.736 158.897C105.736 159.185 105.963 158.674 105.968 158.908C105.969 158.939 105.957 159.208 106.001 159.166C106.061 159.11 106.114 159.036 106.167 158.982" stroke="#CD4631" stroke-width="0.342785" stroke-linecap="round"/>
<path d="M106.167 153.047C106.485 152.729 106.803 152.415 107.114 152.103C107.224 151.994 107.208 152.098 107.179 152.216C107.143 152.36 107.102 152.482 107.046 152.619C106.927 152.911 106.921 153.256 106.75 153.526C106.504 153.911 107.298 152.794 107.579 152.433C107.818 152.125 107.245 153.146 107.16 153.527C107.16 153.531 107.334 153.279 107.383 153.216C107.571 152.978 107.771 152.74 107.986 152.525C108.005 152.506 108.179 152.322 108.175 152.394C108.16 152.678 107.957 152.969 107.825 153.211C107.691 153.457 107.581 153.716 107.442 153.96C107.387 154.058 107.317 154.176 107.297 154.288C107.278 154.392 107.434 154.128 107.439 154.122C107.67 153.835 107.926 153.569 108.166 153.29C108.433 152.98 108.222 153.37 108.15 153.511C108.026 153.753 107.913 153.998 107.792 154.24C107.69 154.444 107.58 154.651 107.461 154.845C107.379 154.977 107.36 155.188 107.254 155.294C107.054 155.494 107.637 154.872 107.866 154.705C108.111 154.526 108.294 154.206 108.422 153.942C108.516 153.749 108.639 153.594 108.746 153.411C108.767 153.377 108.836 153.289 108.831 153.301C108.739 153.54 108.558 153.738 108.489 153.99C108.373 154.408 108.143 154.828 107.958 155.22C107.826 155.499 108.136 155.097 108.203 155.025C108.354 154.862 108.513 154.715 108.653 154.541C108.717 154.46 108.795 154.377 108.851 154.292C109.023 154.035 108.474 154.78 108.275 155.016C108.142 155.173 108.072 155.384 107.943 155.55C107.887 155.623 107.864 155.716 107.777 155.766C107.748 155.783 107.924 155.688 107.958 155.659C108.118 155.521 108.277 155.381 108.426 155.231C108.559 155.099 108.724 154.85 108.903 154.771C109.025 154.716 109.074 154.651 108.934 154.824C108.792 155 108.711 155.185 108.619 155.384C108.543 155.549 108.395 155.686 108.323 155.848C108.306 155.887 108.22 156.056 108.244 156.025C108.425 155.783 108.621 155.567 108.835 155.353C109.003 155.185 108.721 155.799 108.689 155.861C108.617 156.005 108.539 156.153 108.441 156.28C108.32 156.435 108.216 156.624 108.131 156.793C108.092 156.872 108.05 156.93 107.991 156.992C107.821 157.172 108.133 156.898 108.183 156.86C108.411 156.683 108.69 156.54 108.894 156.337C109.065 156.166 108.635 156.746 108.522 156.959C108.424 157.144 108.281 157.281 108.139 157.423C108.016 157.546 108.417 157.294 108.463 157.258C108.477 157.247 108.617 157.118 108.636 157.134C108.711 157.199 108.622 157.412 108.603 157.482C108.584 157.549 108.555 157.632 108.555 157.702C108.555 157.748 108.613 157.629 108.647 157.597C108.774 157.475 108.588 157.988 108.588 158.053C108.588 158.126 108.5 158.411 108.514 158.385C108.527 158.363 108.489 158.597 108.489 158.65" stroke="#CD4631" stroke-width="0.342785" stroke-linecap="round"/>
</svg>
