<svg width="100" height="47" viewBox="0 0 100 47" fill="none" xmlns="http://www.w3.org/2000/svg">
<path d="M2.05041 7.56443L2.16844 7.36838C2.54572 7.59551 2.76126 7.90959 2.83712 8.28276L2.83869 8.29048L2.83855 8.2905C2.85712 8.40123 2.86914 8.51126 2.87889 8.61746L2.66287 8.77552C2.65037 8.62646 2.63788 8.47741 2.61288 8.32835C2.55038 8.02092 2.37539 7.76007 2.05041 7.56443ZM2.05041 7.56443C2.02604 7.54963 2.00173 7.53478 1.97744 7.51993C1.6654 7.3293 1.35636 7.1405 0.950485 7.07999C0.88799 7.07068 0.812995 7.04273 0.775497 7.00547M2.05041 7.56443L2.1692 7.36884C2.14383 7.35344 2.11822 7.33776 2.09233 7.32191C1.81023 7.14919 1.49502 6.95621 1.09447 6.87328M0.775497 7.00547L0.883148 6.90918C0.883795 6.90888 0.884435 6.9086 0.885065 6.90834C0.887032 6.90752 0.888438 6.90703 0.889262 6.90677L0.894212 6.90609C0.922545 6.90219 0.950562 6.89803 0.978268 6.89362C1.01763 6.88735 1.05636 6.88057 1.09447 6.87328M0.775497 7.00547L0.871467 6.90889C0.871571 6.90871 0.871674 6.90852 0.871778 6.90834C0.875101 6.90234 0.880103 6.89207 0.884117 6.87781C0.884894 6.87505 0.885635 6.87214 0.886319 6.86908C0.886949 6.86626 0.887497 6.86349 0.88797 6.86077C0.89504 6.82005 0.885225 6.79059 0.881819 6.78174C0.879721 6.77629 0.87805 6.77342 0.878048 6.77343C0.878047 6.77343 0.879047 6.77516 0.881627 6.77875C0.886874 6.78605 0.894831 6.79583 0.906683 6.80926L0.925161 6.82983L0.932519 6.83796L2.86286 5.16088C2.55038 5.9248 2.01292 6.52103 0.862991 6.6794C0.775497 6.68872 0.675504 6.76325 0.663004 6.81914C0.651786 6.86931 0.711046 6.93449 0.759456 6.98773C0.764985 6.99381 0.770372 6.99974 0.775497 7.00547ZM1.09447 6.87328C1.60725 6.77526 2.00813 6.58583 2.32347 6.323C2.67759 6.02786 2.90896 5.65258 3.07466 5.24752L3.07514 5.24632C3.1054 5.17115 3.13058 5.09178 3.15255 5.01281M1.09447 6.87328L3.15255 5.01281M3.15255 5.01281C3.15069 5.04161 3.14882 5.07055 3.14696 5.09971L3.14688 5.10097C3.14326 5.16309 3.13811 5.22956 3.13278 5.29848C3.12142 5.44518 3.1092 5.60296 3.109 5.75331C3.1014 6.00465 3.20768 6.20552 3.36543 6.35669C3.51795 6.50285 3.71965 6.60475 3.92037 6.67956L3.92036 6.67959L3.9241 6.68091C3.9676 6.69626 4.012 6.71054 4.05731 6.72353C4.03908 6.7283 4.02095 6.73314 4.00292 6.73802L4.0029 6.73795L3.9974 6.73959C3.84707 6.78441 3.6754 6.87742 3.57272 7.01002C3.57006 7.01308 3.56739 7.01616 3.5647 7.01925C3.43682 7.1664 3.27488 7.35275 3.19751 7.57078C3.19736 7.57121 3.1972 7.57165 3.19705 7.57209L3.41282 7.64828M3.15255 5.01281L3.03785 8.88732C3.08087 8.74621 3.12094 8.604 3.1611 8.46145C3.23761 8.18989 3.31446 7.91708 3.41282 7.64828M3.41282 7.64828C3.47532 7.47127 3.61281 7.3129 3.7503 7.15452L3.41282 7.64828ZM3.18712 4.468L3.18712 4.46804C3.18712 4.46788 3.18712 4.46786 3.18712 4.468Z" stroke="#81ADC8" stroke-width="0.457659"/>
<mask id="path-2-inside-1_314_1155" fill="white">
<path d="M4.47995 10.1417C4.47518 10.0847 4.4704 10.0278 4.46085 9.97082C4.43697 9.85336 4.37012 9.75369 4.24595 9.67895C4.11701 9.60064 3.99284 9.51877 3.8257 9.49386C3.80182 9.4903 3.77317 9.47962 3.75884 9.46538C3.73974 9.44403 3.71108 9.41555 3.71586 9.39419C3.72064 9.37284 3.75884 9.34436 3.79227 9.3408C4.23162 9.28029 4.43697 9.05249 4.55636 8.76062C4.58502 8.68943 4.59934 8.61112 4.61845 8.53637C4.63277 8.51146 4.628 8.48654 4.64232 8.46519C4.65665 8.44739 4.6853 8.42603 4.70441 8.42959C4.72351 8.42959 4.74739 8.45451 4.76171 8.4723C4.77126 8.48654 4.76649 8.50434 4.76649 8.52214C4.76171 8.59688 4.75694 8.66807 4.75216 8.74282C4.74739 8.82469 4.73784 8.90655 4.73784 8.98842C4.73306 9.12368 4.84767 9.20554 4.99094 9.25894C5.08168 9.29097 5.18196 9.30877 5.2918 9.29809C5.35866 9.29097 5.42552 9.30521 5.49715 9.31233C5.52103 9.31589 5.54491 9.31945 5.55923 9.33012C5.57834 9.34792 5.60221 9.37284 5.60221 9.39063C5.60221 9.42267 5.55923 9.42623 5.52103 9.42267C5.45895 9.41911 5.40164 9.41555 5.33956 9.40843C5.22494 9.39775 5.11988 9.41911 5.01482 9.44758C4.96706 9.46182 4.91931 9.4903 4.89543 9.52233C4.8429 9.58284 4.79037 9.64335 4.76649 9.71098C4.70918 9.8676 4.67098 10.0278 4.62322 10.1844C4.61367 10.2164 4.61367 10.2485 4.59457 10.2769C4.58502 10.2947 4.55159 10.3161 4.53249 10.3161C4.51338 10.3161 4.47995 10.2912 4.47995 10.2734C4.47518 10.2307 4.47995 10.1844 4.47995 10.1417Z"/>
</mask>
<path d="M4.47995 10.1417H4.93761V10.1225L4.93601 10.1034L4.47995 10.1417ZM4.46085 9.97082L4.91221 9.89512L4.91091 9.88736L4.90934 9.87965L4.46085 9.97082ZM4.24595 9.67895L4.00839 10.0701L4.00991 10.071L4.24595 9.67895ZM3.8257 9.49386L3.75822 9.94651L3.8257 9.49386ZM3.75884 9.46538L3.41773 9.77049L3.4267 9.78052L3.43624 9.79L3.75884 9.46538ZM3.71586 9.39419L4.16249 9.49407L4.16249 9.49406L3.71586 9.39419ZM3.79227 9.3408L3.84075 9.7961L3.85471 9.79418L3.79227 9.3408ZM4.55636 8.76062L4.97996 8.93389L4.98092 8.9315L4.55636 8.76062ZM4.61845 8.53637L4.2217 8.30824L4.19052 8.36246L4.17504 8.42306L4.61845 8.53637ZM4.64232 8.46519L4.28582 8.1782L4.27335 8.1937L4.26226 8.21023L4.64232 8.46519ZM4.70441 8.42959L4.62057 8.87951L4.66213 8.88725H4.70441V8.42959ZM4.76171 8.4723L5.14178 8.21734L5.13069 8.20082L5.11821 8.18532L4.76171 8.4723ZM4.76649 8.52214L5.22322 8.55132L5.22415 8.53674V8.52214H4.76649ZM4.75216 8.74282L4.29543 8.71364L4.29528 8.71617L4.75216 8.74282ZM4.73784 8.98842L5.19521 9.00457L5.19549 8.9965V8.98842H4.73784ZM4.99094 9.25894L4.8311 9.68785L4.83858 9.69049L4.99094 9.25894ZM5.2918 9.29809L5.33609 9.75362L5.34026 9.75318L5.2918 9.29809ZM5.49715 9.31233L5.56463 8.85967L5.55355 8.85802L5.54241 8.85691L5.49715 9.31233ZM5.55923 9.33012L5.87121 8.99527L5.85285 8.97817L5.83273 8.96318L5.55923 9.33012ZM5.52103 9.42267L5.56349 8.96698L5.55537 8.96623L5.54723 8.96576L5.52103 9.42267ZM5.33956 9.40843L5.39171 8.95365L5.38201 8.95275L5.33956 9.40843ZM5.01482 9.44758L4.89506 9.00572L4.88406 9.009L5.01482 9.44758ZM4.89543 9.52233L5.24102 9.82236L5.25219 9.8095L5.26237 9.79584L4.89543 9.52233ZM4.76649 9.71098L5.19631 9.86826L5.19804 9.86335L4.76649 9.71098ZM4.62322 10.1844L4.18545 10.0509L4.18464 10.0536L4.62322 10.1844ZM4.59457 10.2769L4.21451 10.022L4.20196 10.0407L4.19131 10.0605L4.59457 10.2769ZM4.47995 10.2734H4.93761V10.2479L4.93478 10.2225L4.47995 10.2734ZM4.93601 10.1034C4.93149 10.0495 4.9254 9.97376 4.91221 9.89512L4.0095 10.0465C4.01541 10.0818 4.01887 10.12 4.0239 10.1799L4.93601 10.1034ZM4.90934 9.87965C4.85873 9.6307 4.71078 9.42458 4.48199 9.28685L4.00991 10.071C4.01796 10.0759 4.02161 10.079 4.02241 10.0798C4.0231 10.0804 4.02174 10.0792 4.01954 10.0762C4.01731 10.0731 4.01535 10.0696 4.0139 10.0662C4.0125 10.0629 4.01221 10.0612 4.01237 10.062L4.90934 9.87965ZM4.48351 9.28777C4.37609 9.22254 4.1694 9.08238 3.89318 9.0412L3.75822 9.94651C3.81629 9.95517 3.85792 9.97874 4.00839 10.0701L4.48351 9.28777ZM3.89318 9.0412C3.9176 9.04484 3.9401 9.05107 3.96228 9.06016C3.97408 9.065 3.98995 9.07236 4.00826 9.08339C4.02567 9.09389 4.0526 9.1121 4.08144 9.14076L3.43624 9.79C3.50307 9.85642 3.575 9.89064 3.6151 9.90708C3.66115 9.92596 3.70992 9.93931 3.75822 9.94651L3.89318 9.0412ZM4.09996 9.16027C4.08388 9.1423 4.09404 9.15393 4.08662 9.14552C4.08535 9.14408 4.09156 9.1509 4.10002 9.16268C4.10716 9.17261 4.12771 9.20207 4.14496 9.24685C4.16202 9.29116 4.18767 9.38146 4.16249 9.49407L3.26923 9.29432C3.24167 9.4176 3.2691 9.51948 3.29079 9.5758C3.31266 9.63259 3.34068 9.6745 3.35677 9.69689C3.37419 9.72113 3.39084 9.74041 3.40017 9.75099C3.40518 9.75667 3.40976 9.76171 3.41258 9.76482C3.41614 9.76874 3.41689 9.76955 3.41773 9.77049L4.09996 9.16027ZM4.16249 9.49406C4.14184 9.5864 4.09713 9.64582 4.07664 9.6704C4.05206 9.69988 4.02789 9.71998 4.00933 9.73324C3.97796 9.75565 3.9223 9.7872 3.84073 9.79589L3.74381 8.88572C3.62881 8.89796 3.53734 8.94554 3.47731 8.98841C3.44442 9.0119 3.40772 9.04335 3.37359 9.08429C3.34355 9.12032 3.29227 9.19131 3.26923 9.29432L4.16249 9.49406ZM3.85471 9.79418C4.14473 9.75424 4.3899 9.65357 4.58731 9.48903C4.78239 9.32645 4.90136 9.12603 4.97995 8.93389L4.13277 8.58735C4.09198 8.68707 4.04858 8.7465 4.00129 8.78591C3.95635 8.82337 3.87916 8.86686 3.72983 8.88742L3.85471 9.79418ZM4.98092 8.9315C5.02467 8.8228 5.05364 8.68185 5.06185 8.64969L4.17504 8.42306C4.14505 8.54039 4.14536 8.55606 4.13181 8.58973L4.98092 8.9315ZM5.01519 8.7645C5.04119 8.71929 5.0564 8.67746 5.06574 8.64525C5.07028 8.62963 5.07342 8.61626 5.07549 8.60688C5.07738 8.59829 5.07897 8.59015 5.07926 8.58867C5.07992 8.58535 5.07937 8.58826 5.07842 8.59242C5.07735 8.59713 5.0751 8.60646 5.07137 8.61837C5.06356 8.64337 5.04912 8.6803 5.02239 8.72015L4.26226 8.21023C4.22837 8.26075 4.20915 8.3088 4.19775 8.34526C4.1876 8.37773 4.18219 8.40679 4.18151 8.41022C4.17946 8.4205 4.18195 8.40649 4.18667 8.39024C4.19243 8.37037 4.20286 8.341 4.2217 8.30824L5.01519 8.7645ZM4.99882 8.75217C4.97429 8.78264 4.94684 8.80694 4.91487 8.82701C4.8978 8.83773 4.86825 8.85428 4.82736 8.86729C4.78911 8.87945 4.71435 8.89698 4.62057 8.87951L4.78824 7.97968C4.60056 7.94471 4.46051 8.03152 4.42828 8.05175C4.37362 8.08605 4.32468 8.12993 4.28582 8.1782L4.99882 8.75217ZM4.70441 8.88725C4.61258 8.88725 4.54499 8.85848 4.51223 8.84184C4.47715 8.82403 4.4534 8.80547 4.44193 8.79591C4.41952 8.77724 4.40758 8.76223 4.40521 8.75929L5.11821 8.18532C5.10152 8.16458 5.07048 8.12821 5.02777 8.09264C5.00664 8.07503 4.88686 7.97193 4.70441 7.97193V8.88725ZM4.38165 8.72726C4.31318 8.6252 4.31002 8.52656 4.31002 8.49589C4.31002 8.48175 4.31101 8.47006 4.31048 8.47783C4.31033 8.48004 4.30883 8.49971 4.30883 8.52214H5.22415C5.22415 8.53566 5.22325 8.54644 5.22369 8.53986C5.22376 8.53884 5.22534 8.51848 5.22534 8.49589C5.22534 8.4483 5.2198 8.33365 5.14178 8.21734L4.38165 8.72726ZM4.30976 8.49296C4.3074 8.52992 4.30504 8.56605 4.30264 8.60259C4.30026 8.63902 4.29785 8.67586 4.29543 8.71364L5.20889 8.772C5.21125 8.73504 5.21362 8.6989 5.21601 8.66237C5.21839 8.62594 5.2208 8.5891 5.22322 8.55132L4.30976 8.49296ZM4.29528 8.71617C4.2927 8.76039 4.28018 8.89098 4.28018 8.98842H5.19549C5.19549 8.92213 5.20207 8.88898 5.20904 8.76947L4.29528 8.71617ZM4.28046 8.97227C4.27268 9.19257 4.36959 9.3673 4.49222 9.48481C4.60262 9.5906 4.73302 9.65122 4.83112 9.68778L5.15076 8.83009C5.13133 8.82285 5.11977 8.81715 5.11428 8.81407C5.10847 8.81081 5.11429 8.81318 5.12552 8.82395C5.13745 8.83537 5.15716 8.85798 5.173 8.8934C5.18961 8.93052 5.19644 8.96957 5.19521 9.00457L4.28046 8.97227ZM4.83858 9.69049C4.98015 9.74047 5.14798 9.77189 5.33609 9.7536L5.24752 8.84258C5.21595 8.84565 5.18321 8.84147 5.1433 8.82738L4.83858 9.69049ZM5.34026 9.75318C5.3272 9.75457 5.32408 9.75285 5.34507 9.75504C5.35572 9.75616 5.36708 9.75761 5.38616 9.76006C5.40328 9.76225 5.42678 9.76525 5.45189 9.76774L5.54241 8.85691C5.53171 8.85585 5.51999 8.8544 5.50233 8.85214C5.48665 8.85013 5.46368 8.84714 5.4403 8.84469C5.39324 8.83977 5.32326 8.83449 5.24335 8.843L5.34026 9.75318ZM5.42968 9.76498C5.44663 9.76751 5.43589 9.76631 5.42143 9.76271C5.41234 9.76045 5.39518 9.75576 5.37369 9.74698C5.35238 9.73826 5.32052 9.723 5.28574 9.69707L5.83273 8.96318C5.75353 8.90415 5.67486 8.88253 5.64212 8.8744C5.60617 8.86547 5.57155 8.8607 5.56463 8.85967L5.42968 9.76498ZM5.24726 9.66498C5.25164 9.66905 5.24151 9.66036 5.22749 9.64245C5.22029 9.63325 5.20412 9.61166 5.18816 9.57948C5.17401 9.55094 5.14456 9.48359 5.14456 9.39063H6.05987C6.05987 9.28878 6.02743 9.21164 6.00821 9.17287C5.98718 9.13046 5.96384 9.09818 5.94829 9.07831C5.91755 9.03904 5.88593 9.00899 5.87121 8.99527L5.24726 9.66498ZM5.14456 9.39063C5.14456 9.28477 5.1847 9.17547 5.26595 9.09147C5.33645 9.01858 5.41258 8.99074 5.44983 8.98006C5.48958 8.96867 5.52038 8.96677 5.5336 8.9663C5.54872 8.96576 5.55917 8.96658 5.56349 8.96698L5.47858 9.87835C5.51327 9.88159 5.60269 9.88842 5.70207 9.85994C5.75484 9.84481 5.8441 9.81029 5.92386 9.72784C6.01436 9.63427 6.05987 9.51252 6.05987 9.39063H5.14456ZM5.54723 8.96576C5.48554 8.96222 5.43965 8.95925 5.3917 8.95375L5.28742 9.86311C5.36363 9.87185 5.43236 9.876 5.49483 9.87958L5.54723 8.96576ZM5.38201 8.95275C5.18461 8.93435 5.01584 8.97314 4.8951 9.00586L5.13454 9.88931C5.22393 9.86508 5.26528 9.86115 5.2971 9.86412L5.38201 8.95275ZM4.88406 9.009C4.77981 9.04008 4.6312 9.11103 4.52849 9.24882L5.26237 9.79584C5.24468 9.81958 5.22783 9.83581 5.21625 9.84579C5.20431 9.85608 5.19407 9.86309 5.18664 9.86767C5.17278 9.87623 5.1597 9.88195 5.14558 9.88617L4.88406 9.009ZM4.54983 9.22231C4.51244 9.26538 4.39338 9.3931 4.33494 9.55861L5.19804 9.86335C5.19365 9.87578 5.18946 9.88364 5.18788 9.88644C5.18635 9.88914 5.18656 9.88836 5.19015 9.88343C5.19377 9.87846 5.19936 9.87127 5.20822 9.86062C5.21736 9.84965 5.22735 9.83811 5.24102 9.82236L4.54983 9.22231ZM4.3367 9.55372C4.27475 9.72301 4.22134 9.93322 4.18546 10.0509L5.06098 10.3179C5.12061 10.1223 5.14361 10.0122 5.19628 9.86825L4.3367 9.55372ZM4.18464 10.0536C4.17657 10.0807 4.17164 10.104 4.16919 10.1158C4.16854 10.119 4.16796 10.1219 4.16754 10.124C4.16705 10.1264 4.1668 10.1276 4.16653 10.129C4.166 10.1315 4.16608 10.1311 4.16646 10.1294C4.16796 10.1229 4.1787 10.0753 4.21451 10.022L4.97463 10.5319C5.02954 10.45 5.04983 10.3722 5.05849 10.3346C5.06067 10.3251 5.06238 10.3168 5.06346 10.3115C5.06513 10.3033 5.06477 10.3049 5.06561 10.3009C5.06644 10.2968 5.0651 10.3041 5.0618 10.3151L4.18464 10.0536ZM4.19131 10.0605C4.22031 10.0065 4.25352 9.9727 4.26948 9.95764C4.28838 9.93982 4.30641 9.92657 4.32218 9.91658C4.33777 9.9067 4.35875 9.89519 4.38559 9.88494C4.40746 9.87658 4.46029 9.85842 4.53249 9.85842V10.7737C4.67368 10.7737 4.77737 10.7117 4.81204 10.6898C4.85146 10.6648 4.93877 10.6034 4.99782 10.4933L4.19131 10.0605ZM4.53249 9.85842C4.61715 9.85842 4.67844 9.88307 4.70372 9.89442C4.73505 9.9085 4.76085 9.92504 4.78204 9.94171C4.80224 9.95761 4.83097 9.98359 4.85875 10.0228C4.88094 10.054 4.93761 10.1425 4.93761 10.2734H4.0223C4.0223 10.4131 4.08315 10.5114 4.1122 10.5523C4.14685 10.6012 4.18513 10.6367 4.21608 10.6611C4.24801 10.6862 4.28575 10.7101 4.32872 10.7294C4.36564 10.746 4.43827 10.7737 4.53249 10.7737V9.85842ZM4.93478 10.2225C4.93599 10.2333 4.93521 10.2365 4.93566 10.2198C4.9359 10.2106 4.93617 10.2048 4.93668 10.1898C4.9371 10.1774 4.93761 10.1603 4.93761 10.1417H4.0223C4.0223 10.156 4.02175 10.1551 4.02067 10.1952C4.01992 10.223 4.01914 10.2707 4.02513 10.3242L4.93478 10.2225Z" fill="#81ADC8" mask="url(#path-2-inside-1_314_1155)"/>
<path d="M2.33595 10.2785C2.32418 10.2773 2.31261 10.2759 2.3012 10.2744C2.28262 10.272 2.26444 10.2697 2.24642 10.2689C2.24593 10.2688 2.24544 10.2688 2.24494 10.2688C2.2329 10.2683 2.22094 10.2684 2.20897 10.2697C2.19905 10.2707 2.18925 10.2713 2.17958 10.2715C2.17458 10.2898 2.17209 10.3085 2.17209 10.3269C2.17209 10.3304 2.17217 10.3338 2.17233 10.3372C2.18651 10.3362 2.20087 10.336 2.21546 10.3365C2.21567 10.3365 2.21587 10.3365 2.21608 10.3365C2.22349 10.3368 2.23096 10.3372 2.2385 10.3379C2.26736 10.3413 2.29455 10.3433 2.32258 10.3451L2.32669 10.3407L2.32873 10.3269L2.33595 10.2785ZM2.33595 10.2785L2.33114 10.3269L2.33014 10.337L2.37434 10.2895C2.36977 10.2861 2.36363 10.2839 2.35673 10.2822C2.35598 10.282 2.35522 10.2819 2.35445 10.2817C2.34859 10.2804 2.34227 10.2795 2.33595 10.2785ZM1.52038 10.2201C1.56722 10.1934 1.6065 10.1613 1.63983 10.1248L1.73419 10.3279C1.73142 10.3317 1.72863 10.3356 1.72585 10.3396C1.71138 10.3289 1.69618 10.3188 1.68027 10.3092L1.60484 10.4345M1.52038 10.2201C1.57784 10.246 1.62542 10.2754 1.66212 10.298C1.66879 10.3021 1.67509 10.306 1.68103 10.3096L1.60538 10.4342M1.52038 10.2201C1.49804 10.2328 1.47398 10.2443 1.44802 10.2544C1.44843 10.2554 1.44884 10.2564 1.44924 10.2575C1.4575 10.2789 1.47022 10.3234 1.45777 10.3791C1.45282 10.4012 1.44507 10.4195 1.4373 10.4337C1.46309 10.4462 1.48775 10.4602 1.51209 10.4748C1.54442 10.463 1.57533 10.4496 1.60484 10.4345M1.52038 10.2201L1.70431 10.3731M1.60538 10.4342C1.6052 10.4343 1.60502 10.4344 1.60484 10.4345M1.60538 10.4342C1.64032 10.4162 1.6733 10.3959 1.70431 10.3731M1.60538 10.4342L1.56225 10.5052L1.60484 10.4345M1.70431 10.3731C1.69063 10.3961 1.67798 10.4216 1.66836 10.4489L1.88041 10.5237C1.88121 10.5254 1.882 10.5271 1.88279 10.5287C1.86753 10.5708 1.85445 10.6133 1.84211 10.6558C1.84158 10.6577 1.84105 10.6595 1.84052 10.6613C1.83756 10.6716 1.83465 10.6818 1.83175 10.692L1.70431 10.3731ZM1.26104 10.3732L1.2874 10.3496L1.28889 10.3483L1.29509 10.3427L1.31177 10.3278L1.36463 10.2805L1.26104 10.3732ZM1.26104 10.3732L1.28711 10.3469L1.28851 10.3455L1.292 10.342L1.31276 10.3211L1.34965 10.284C1.33912 10.2863 1.32835 10.2885 1.31733 10.2905C1.30574 10.2926 1.29387 10.2945 1.28171 10.2961C1.26104 10.2983 1.23741 10.3159 1.23446 10.3291C1.23181 10.341 1.24581 10.3564 1.25725 10.369C1.25855 10.3704 1.25982 10.3718 1.26104 10.3732Z" stroke="#CD4631" stroke-width="0.457659"/>
<path d="M93.7666 46.6234C93.7666 45.9862 93.6272 45.1481 93.9542 44.5596C94.0479 44.391 93.9764 44.2316 94.114 44.094C94.2609 43.9471 94.4604 43.8574 94.6143 43.7188C95.2316 43.1633 95.2675 41.9266 95.2675 41.12C95.2675 40.0078 96.2046 39.2303 96.6434 38.2432C96.9066 37.651 97.3575 36.7598 97.7969 36.2697C98.2733 35.7383 98.9154 35.0545 99.1449 34.3657" stroke="black" stroke-width="0.366127" stroke-linecap="round"/>
<path d="M96.5894 40.5423C96.5894 40.0296 96.5959 39.9296 96.8065 39.561C96.9283 39.348 97.3921 39.1987 97.4541 38.9818C97.5051 38.8031 97.8761 38.3947 98.0373 38.3142C98.3492 38.1582 98.5318 37.671 98.6888 37.3569" stroke="black" stroke-width="0.366127" stroke-linecap="round"/>
<path d="M5.32447 31.1905C4.48803 31.1701 4.00929 30.0814 3.30438 30.7158C2.91459 31.0666 2.16102 30.4269 1.87012 30.2815" stroke="black" stroke-width="0.366127" stroke-linecap="round"/>
<path d="M5.86882 32.5539C5.63098 32.5539 5.30327 32.6111 5.0711 32.5337C4.93513 32.4884 4.86452 32.3398 4.73282 32.2812C4.63729 32.2388 4.27805 32.1104 4.23298 32.054C4.00844 31.7734 3.39801 32.8543 2.96066 32.463C2.49775 32.0488 1.80979 31.9852 1.27938 31.6905C1.06723 31.5727 0.859204 31.553 0.688656 31.3724C0.563628 31.24 0.527877 30.9949 0.416016 30.8271" stroke="black" stroke-width="0.366127" stroke-linecap="round"/>
<path d="M82.1362 6.32451C82.0174 6.01375 82.4224 5.77352 82.6382 6.02671L83.727 7.30413C83.9706 7.58992 84.4314 7.50976 84.5642 7.15851L85.3863 4.98425C85.4994 4.68498 85.941 4.75294 85.9589 5.07238L86.0538 6.76376C86.0725 7.09746 86.4105 7.31644 86.7227 7.19712L88.8348 6.38992C89.108 6.28549 89.3511 6.59831 89.1824 6.83729L87.7721 8.83528C87.5841 9.10167 87.7015 9.47396 88.0083 9.5843L89.161 9.99883C89.4646 10.108 89.3995 10.5551 89.0774 10.5731L87.4636 10.6637C87.1299 10.6824 86.9109 11.0204 87.0302 11.3326L87.5153 12.6019C87.6332 12.9104 87.234 13.1511 87.0162 12.9029L85.5999 11.2893C85.3424 10.9959 84.8624 11.1034 84.7546 11.4786L84.3165 13.0038C84.2222 13.3319 83.7392 13.2664 83.7358 12.925L83.7134 10.7123C83.7093 10.305 83.2414 10.0777 82.9187 10.3263L82.4041 10.7228C82.1237 10.9388 81.7691 10.5698 81.9962 10.2983L82.3248 9.90517C82.5559 9.62885 82.4227 9.20613 82.075 9.11217L80.9838 8.81731C80.6593 8.72959 80.7088 8.25462 81.0445 8.23579L82.1539 8.17356C82.4876 8.15484 82.7066 7.81681 82.5872 7.50461L82.1362 6.32451Z" fill="black" stroke="black" stroke-width="0.197411"/>
<path d="M54.7014 17.4319C55.3584 16.294 56.4404 15.4637 57.7096 15.1237C58.9788 14.7836 60.331 14.9616 61.4689 15.6186C62.6068 16.2755 63.4371 17.3576 63.7772 18.6268C64.1172 19.8959 63.9392 21.2482 63.2823 22.3861L60.708 20.8998C60.9708 20.4447 61.042 19.9038 60.906 19.3961C60.7699 18.8885 60.4378 18.4556 59.9827 18.1928C59.5275 17.9301 58.9866 17.8588 58.4789 17.9949C57.9713 18.1309 57.5384 18.463 57.2757 18.9182L54.7014 17.4319Z" fill="#CD4631"/>
<path d="M7.46826 10.2235C8.10687 10.0019 8.69436 9.68704 9.37411 9.66762C10.0944 9.64704 10.1702 9.83592 10.7241 10.1617C11.1097 10.3885 11.253 10.9787 11.5976 11.1941C11.8109 11.3274 11.9346 11.6723 12.1138 11.8514C12.4036 12.1413 12.707 12.4691 13.027 12.7205C13.9551 13.4497 14.8882 14.3082 15.727 15.1469C16.1058 15.5258 16.5691 15.8082 17.0152 16.0999C17.2646 16.263 17.4521 16.4175 17.7519 16.4175C18.1129 16.4175 18.2007 16.2174 18.5063 16.0646C18.9374 15.849 19.3416 15.7028 19.8166 15.7028C20.0267 15.7028 21.0007 15.9626 20.5533 16.3205C20.3165 16.5099 20.7507 16.4175 20.9636 16.4175C21.2499 16.4175 21.497 16.3486 21.7798 16.3381C22.1853 16.3231 22.6673 16.2477 23.068 16.1749C23.2134 16.1484 23.7006 15.9818 23.8268 16.1396C23.9959 16.3509 24.0651 16.3587 24.0651 16.6557C24.0651 16.8883 23.9777 17.1322 24.2636 17.1322C24.8479 17.1322 25.2892 17.0142 25.8121 16.7528C26.4315 16.4431 26.7964 16.0102 27.4797 15.844C27.9644 15.7261 28.4496 15.6234 28.9488 15.6234C29.4559 15.6234 30.0074 15.6698 30.4929 15.4999C31.9412 14.993 33.2924 14.4206 34.5914 13.594C35.4912 13.0214 36.495 12.6506 37.4104 12.0852C38.4708 11.4303 39.5273 10.8481 40.5648 10.1441C41.3709 9.59707 42.3396 9.26676 43.1412 8.73234C43.3268 8.60864 43.8597 8.61841 44.0942 8.57352C44.2834 8.53729 44.4866 8.59268 44.6721 8.55146C44.9788 8.48331 45.3454 8.43327 45.625 8.27794C46.062 8.0352 46.5524 7.84695 46.9794 7.60295C47.6033 7.24643 48.0586 6.68766 48.4794 6.1118C48.7161 5.78784 49.6493 5.55844 50.0323 5.53828C50.5501 5.51103 51.2469 5.1892 51.6602 4.8677C52.2742 4.39019 53.0611 4.02948 53.844 4.02948C54.6414 4.02948 55.447 3.99996 56.244 4.02948C56.6692 4.04523 56.9216 4.5725 56.941 4.90299C56.9733 5.45253 57.1145 5.78967 57.3381 6.29268C57.5851 6.8484 58.3975 6.9754 58.9263 7.12649C59.4821 7.28531 59.7536 7.89104 60.038 8.31764" stroke="#F7EDE8" stroke-width="0.457659" stroke-linecap="round"/>
<path d="M6.4864 14.2344C6.4864 15.0957 6.4864 15.957 6.4864 16.8182C6.4864 17.4158 6.3936 18.0902 6.58466 18.6633C6.83568 19.4164 7.00453 20.1726 7.32342 20.9015C7.61034 21.5573 8.07152 22.1755 8.5171 22.7357C9.38286 23.824 10.7013 24.5148 11.9525 25.0757C12.4856 25.3147 13.0485 25.5755 13.5575 25.8618C13.7253 25.9562 13.9127 26.0431 14.0888 26.1202C14.1925 26.1655 14.4787 26.1735 14.5437 26.2548C14.6861 26.4328 14.6867 26.85 14.7548 27.0882C14.8457 27.4064 14.8712 27.6613 14.8712 27.9907C14.8712 28.2321 14.8712 28.4735 14.8712 28.7149C14.8712 29.1636 15.1927 29.5976 15.428 29.9596C15.708 30.3902 15.9467 30.8099 16.2469 31.2151C16.6181 31.7163 17.1884 32.0593 17.6734 32.4452C18.1676 32.8383 18.611 33.1636 19.2092 33.3477C20.4624 33.7333 21.9233 33.6243 23.2196 33.6243C23.7111 33.6243 24.3088 33.656 24.6826 33.2822C24.9332 33.0316 25.0899 32.7006 25.3013 32.416C25.8561 31.6693 26.2624 30.5245 26.3312 29.5956C26.3665 29.1197 26.3348 28.6322 26.3348 28.1545C26.3348 27.8942 26.5777 27.9991 26.7934 27.9871C27.1041 27.9698 27.4115 27.8538 27.7068 27.7615C28.6419 27.4693 29.596 27.1296 30.5636 26.9426C31.5078 26.7602 32.5603 26.8771 33.5187 26.8771C34.0864 26.8771 34.6542 26.8771 35.2219 26.8771C35.9394 26.8771 36.6122 26.6565 37.3108 26.5168C38.5173 26.2755 39.743 26.1624 40.9282 25.829C41.6685 25.6208 42.378 25.3462 43.1045 25.1084C43.5613 24.959 44.0096 24.8438 44.4364 24.6135C44.6922 24.4755 44.9471 24.3011 45.2152 24.1914C45.6553 24.0113 46.0758 23.6813 46.5108 23.5363" stroke="#F7EDE8" stroke-width="0.457659" stroke-linecap="round"/>
</svg>
