<svg width="109" height="118" viewBox="0 0 109 118" fill="none" xmlns="http://www.w3.org/2000/svg">
<path d="M42.0261 78.5964C46.215 79.2127 53.029 81.8702 61.6062 76.8826C69.9841 72.011 45.1022 76.748 42.3697 84.78C39.1756 94.1688 81.2994 83.3757 73.3797 81.3344C68.9489 80.1924 43.1564 90.6583 46.4785 95.1583C50.7045 100.883 81.2506 91.9963 81.2521 88.8721C81.2548 83.3606 45.4672 97.8089 47.4508 103.694C49.8162 110.712 73.9642 103.271 75.9392 98.4602C77.5192 94.6115 53.429 106.289 56.8828 116.983" stroke="#81ADC8" stroke-width="1.02835" stroke-linecap="round"/>
<path d="M105.476 27.5032C106.362 34.722 104.345 41.9972 99.867 47.7284C95.3894 53.4595 88.8184 57.1772 81.5996 58.0636C74.3809 58.9499 67.1057 56.9323 61.3745 52.4547C55.6433 47.977 51.9256 41.406 51.0393 34.1872L67.3703 32.182C67.7248 35.0695 69.2119 37.6979 71.5044 39.489C73.7968 41.2801 76.7069 42.0871 79.5944 41.7326C82.4819 41.378 85.1103 39.891 86.9014 37.5985C88.6925 35.306 89.4995 32.3959 89.145 29.5084L105.476 27.5032Z" fill="#CD4631"/>
<path d="M18.0884 35.7642C17.3024 34.9174 18.2947 33.6179 19.3186 34.1532L24.4842 36.854C25.6399 37.4583 27.0201 36.6017 26.9918 35.298L26.8165 27.2275C26.7923 26.1166 28.3028 25.7622 28.7753 26.7679L31.277 32.0925C31.7706 33.143 33.1436 33.4095 33.9943 32.6198L39.7491 27.2776C40.4936 26.5865 41.6827 27.2784 41.4497 28.2672L39.5012 36.5337C39.2415 37.6359 40.1029 38.6826 41.2345 38.6396L45.4856 38.4781C46.6052 38.4356 46.976 39.96 45.962 40.4365L40.8814 42.8234C39.8309 43.317 39.5645 44.6901 40.3541 45.5407L43.5646 48.9992C44.3449 49.8397 43.3717 51.1335 42.3477 50.6169L35.6908 47.2584C34.4806 46.6478 33.0741 47.6173 33.2141 48.9656L33.7832 54.447C33.9056 55.6262 32.2648 56.0423 31.8105 54.9472L28.8655 47.8492C28.3234 46.5426 26.5213 46.4182 25.8047 47.6378L24.6618 49.583C24.039 50.6429 22.4181 49.9147 22.7968 48.7453L23.345 47.0524C23.7304 45.8624 22.7525 44.6738 21.5106 44.8226L17.6132 45.2896C16.4539 45.4285 15.9968 43.8343 17.0536 43.3378L20.546 41.6969C21.5966 41.2034 21.863 39.8303 21.0733 38.9796L18.0884 35.7642Z" fill="black" stroke="black" stroke-width="0.685569"/>
</svg>
